<svg width="417" height="126" viewBox="0 0 417 126" fill="none" xmlns="http://www.w3.org/2000/svg">
<rect x="44" width="330" height="126" rx="57" fill="#B3B639" fill-opacity="0.63"/>
<path d="M68.8766 51V24.582H88.7086V51H85.4156V27.505H72.2066V51H68.8766ZM112.738 41.047C112.738 44.3277 111.899 46.8683 110.222 48.669C108.569 50.4697 106.325 51.37 103.488 51.37C101.737 51.37 100.17 50.9753 98.7891 50.186C97.4324 49.372 96.3594 48.2003 95.5701 46.671C94.7807 45.117 94.3861 43.2423 94.3861 41.047C94.3861 37.7663 95.2124 35.238 96.8651 33.462C98.5177 31.686 100.762 30.798 103.599 30.798C105.4 30.798 106.978 31.205 108.335 32.019C109.716 32.8083 110.789 33.9677 111.554 35.497C112.343 37.0017 112.738 38.8517 112.738 41.047ZM97.7531 41.047C97.7531 43.3903 98.2094 45.2527 99.1221 46.634C100.059 47.9907 101.539 48.669 103.562 48.669C105.56 48.669 107.028 47.9907 107.965 46.634C108.902 45.2527 109.371 43.3903 109.371 41.047C109.371 38.7037 108.902 36.866 107.965 35.534C107.028 34.202 105.548 33.536 103.525 33.536C101.502 33.536 100.035 34.202 99.1221 35.534C98.2094 36.866 97.7531 38.7037 97.7531 41.047ZM132.624 31.168V48.262H135.51V57.882H132.365V51H118.564V57.882H115.456V48.262H117.047C118.749 45.9187 120.02 43.2547 120.858 40.27C121.722 37.2607 122.166 34.2267 122.19 31.168H132.624ZM125.076 33.721C124.978 35.3983 124.719 37.1373 124.299 38.938C123.88 40.714 123.337 42.416 122.671 44.044C122.03 45.672 121.278 47.078 120.414 48.262H129.479V33.721H125.076ZM156.158 31.168V51H152.902V33.943H142.653V51H139.397V31.168H156.158ZM165.557 43.267C165.557 43.563 165.545 44.007 165.52 44.599C165.496 45.191 165.459 45.783 165.409 46.375C165.385 46.967 165.36 47.4357 165.335 47.781L175.954 31.168H179.95V51H176.916V39.308C176.916 38.9133 176.916 38.3953 176.916 37.754C176.941 37.1127 176.966 36.4837 176.99 35.867C177.015 35.2257 177.04 34.7447 177.064 34.424L166.519 51H162.486V31.168H165.557V43.267ZM194.217 51.37C192.465 51.37 190.899 51.0123 189.518 50.297C188.161 49.5817 187.088 48.4717 186.299 46.967C185.534 45.4623 185.152 43.5383 185.152 41.195C185.152 38.753 185.559 36.7673 186.373 35.238C187.187 33.7087 188.284 32.5863 189.666 31.871C191.072 31.1557 192.663 30.798 194.439 30.798C195.45 30.798 196.424 30.909 197.362 31.131C198.299 31.3283 199.064 31.575 199.656 31.871L198.657 34.572C198.065 34.35 197.374 34.1403 196.585 33.943C195.795 33.7457 195.055 33.647 194.365 33.647C190.467 33.647 188.519 36.1507 188.519 41.158C188.519 43.5507 188.987 45.3883 189.925 46.671C190.887 47.929 192.305 48.558 194.18 48.558C195.265 48.558 196.215 48.447 197.029 48.225C197.867 48.003 198.632 47.7317 199.323 47.411V50.297C198.657 50.6423 197.917 50.9013 197.103 51.074C196.313 51.2713 195.351 51.37 194.217 51.37ZM211.55 30.835C213.967 30.835 215.756 31.3653 216.915 32.426C218.074 33.4867 218.654 35.1763 218.654 37.495V51H216.286L215.657 48.188H215.509C214.646 49.2733 213.733 50.075 212.771 50.593C211.834 51.111 210.526 51.37 208.849 51.37C207.048 51.37 205.556 50.9013 204.372 49.964C203.188 49.002 202.596 47.5097 202.596 45.487C202.596 43.5137 203.373 41.9967 204.927 40.936C206.481 39.8507 208.874 39.2587 212.105 39.16L215.472 39.049V37.865C215.472 36.2123 215.114 35.0653 214.399 34.424C213.684 33.7827 212.672 33.462 211.365 33.462C210.329 33.462 209.342 33.6223 208.405 33.943C207.468 34.239 206.592 34.5843 205.778 34.979L204.779 32.537C205.642 32.0683 206.666 31.6737 207.85 31.353C209.034 31.0077 210.267 30.835 211.55 30.835ZM212.512 41.417C210.045 41.5157 208.331 41.9103 207.369 42.601C206.432 43.2917 205.963 44.266 205.963 45.524C205.963 46.634 206.296 47.448 206.962 47.966C207.653 48.484 208.528 48.743 209.589 48.743C211.266 48.743 212.66 48.2867 213.77 47.374C214.88 46.4367 215.435 45.006 215.435 43.082V41.306L212.512 41.417ZM238.469 33.906H231.994V51H228.775V33.906H222.374V31.168H238.469V33.906ZM251.515 39.308C256.67 39.308 259.248 41.1827 259.248 44.932C259.248 46.782 258.619 48.262 257.361 49.372C256.103 50.4573 254.105 51 251.367 51H242.376V31.168H245.632V39.308H251.515ZM255.992 45.117C255.992 43.9083 255.56 43.0943 254.697 42.675C253.858 42.231 252.674 42.009 251.145 42.009H245.632V48.373H251.219C252.6 48.373 253.735 48.1263 254.623 47.633C255.536 47.1397 255.992 46.301 255.992 45.117ZM272.3 51.37C270.548 51.37 268.982 51.0123 267.601 50.297C266.244 49.5817 265.171 48.4717 264.382 46.967C263.617 45.4623 263.235 43.5383 263.235 41.195C263.235 38.753 263.642 36.7673 264.456 35.238C265.27 33.7087 266.367 32.5863 267.749 31.871C269.155 31.1557 270.746 30.798 272.522 30.798C273.533 30.798 274.507 30.909 275.445 31.131C276.382 31.3283 277.147 31.575 277.739 31.871L276.74 34.572C276.148 34.35 275.457 34.1403 274.668 33.943C273.878 33.7457 273.138 33.647 272.448 33.647C268.55 33.647 266.602 36.1507 266.602 41.158C266.602 43.5507 267.07 45.3883 268.008 46.671C268.97 47.929 270.388 48.558 272.263 48.558C273.348 48.558 274.298 48.447 275.112 48.225C275.95 48.003 276.715 47.7317 277.406 47.411V50.297C276.74 50.6423 276 50.9013 275.186 51.074C274.396 51.2713 273.434 51.37 272.3 51.37ZM283.343 51H279.569L285.23 42.675C284.465 42.4777 283.725 42.1693 283.01 41.75C282.295 41.306 281.715 40.7017 281.271 39.937C280.827 39.1477 280.605 38.1733 280.605 37.014C280.605 35.1147 281.246 33.6717 282.529 32.685C283.812 31.6737 285.514 31.168 287.635 31.168H296.515V51H293.259V43.119H288.449L283.343 51ZM283.75 37.051C283.75 38.1857 284.169 39.0367 285.008 39.604C285.871 40.1467 287.068 40.418 288.597 40.418H293.259V33.869H287.968C286.463 33.869 285.378 34.165 284.712 34.757C284.071 35.349 283.75 36.1137 283.75 37.051ZM313.815 31.168V39.419H324.582V31.168H327.838V51H324.582V42.157H313.815V51H310.559V31.168H313.815ZM341.628 30.835C344.046 30.835 345.834 31.3653 346.993 32.426C348.153 33.4867 348.732 35.1763 348.732 37.495V51H346.364L345.735 48.188H345.587C344.724 49.2733 343.811 50.075 342.849 50.593C341.912 51.111 340.605 51.37 338.927 51.37C337.127 51.37 335.634 50.9013 334.45 49.964C333.266 49.002 332.674 47.5097 332.674 45.487C332.674 43.5137 333.451 41.9967 335.005 40.936C336.559 39.8507 338.952 39.2587 342.183 39.16L345.55 39.049V37.865C345.55 36.2123 345.193 35.0653 344.477 34.424C343.762 33.7827 342.751 33.462 341.443 33.462C340.407 33.462 339.421 33.6223 338.483 33.943C337.546 34.239 336.67 34.5843 335.856 34.979L334.857 32.537C335.721 32.0683 336.744 31.6737 337.928 31.353C339.112 31.0077 340.346 30.835 341.628 30.835ZM342.59 41.417C340.124 41.5157 338.409 41.9103 337.447 42.601C336.51 43.2917 336.041 44.266 336.041 45.524C336.041 46.634 336.374 47.448 337.04 47.966C337.731 48.484 338.607 48.743 339.667 48.743C341.345 48.743 342.738 48.2867 343.848 47.374C344.958 46.4367 345.513 45.006 345.513 43.082V41.306L342.59 41.417ZM117.833 89.047C117.833 92.3277 116.994 94.8683 115.317 96.669C113.664 98.4697 111.419 99.37 108.583 99.37C106.831 99.37 105.265 98.9753 103.884 98.186C102.527 97.372 101.454 96.2003 100.665 94.671C99.8755 93.117 99.4808 91.2423 99.4808 89.047C99.4808 85.7663 100.307 83.238 101.96 81.462C103.612 79.686 105.857 78.798 108.694 78.798C110.494 78.798 112.073 79.205 113.43 80.019C114.811 80.8083 115.884 81.9677 116.649 83.497C117.438 85.0017 117.833 86.8517 117.833 89.047ZM102.848 89.047C102.848 91.3903 103.304 93.2527 104.217 94.634C105.154 95.9907 106.634 96.669 108.657 96.669C110.655 96.669 112.122 95.9907 113.06 94.634C113.997 93.2527 114.466 91.3903 114.466 89.047C114.466 86.7037 113.997 84.866 113.06 83.534C112.122 82.202 110.642 81.536 108.62 81.536C106.597 81.536 105.129 82.202 104.217 83.534C103.304 84.866 102.848 86.7037 102.848 89.047ZM121.957 87.086C121.957 82.7447 122.611 79.3653 123.918 76.948C125.225 74.506 127.334 72.9767 130.245 72.36C131.848 72.0147 133.415 71.7063 134.944 71.435C136.473 71.1637 137.904 70.917 139.236 70.695L139.791 73.544C138.928 73.6673 137.953 73.8277 136.868 74.025C135.783 74.1977 134.71 74.3827 133.649 74.58C132.588 74.7527 131.676 74.9253 130.911 75.098C129.308 75.4433 128.037 76.282 127.1 77.614C126.163 78.9213 125.632 80.9687 125.509 83.756H125.731C126.076 83.2873 126.545 82.8063 127.137 82.313C127.754 81.8197 128.481 81.4003 129.32 81.055C130.183 80.7097 131.158 80.537 132.243 80.537C134.808 80.537 136.745 81.3633 138.052 83.016C139.359 84.6687 140.013 86.8147 140.013 89.454C140.013 91.6493 139.631 93.487 138.866 94.967C138.101 96.447 137.041 97.557 135.684 98.297C134.327 99.0123 132.749 99.37 130.948 99.37C128.21 99.37 126.027 98.3217 124.399 96.225C122.771 94.1283 121.957 91.082 121.957 87.086ZM131.207 96.669C132.81 96.669 134.105 96.151 135.092 95.115C136.079 94.079 136.572 92.303 136.572 89.787C136.572 87.7643 136.19 86.1733 135.425 85.014C134.685 83.83 133.452 83.238 131.725 83.238C130.64 83.238 129.653 83.4847 128.765 83.978C127.877 84.4467 127.137 84.9893 126.545 85.606C125.953 86.2227 125.534 86.7407 125.287 87.16C125.287 88.3687 125.373 89.5403 125.546 90.675C125.719 91.8097 126.015 92.8333 126.434 93.746C126.878 94.634 127.482 95.3493 128.247 95.892C129.036 96.41 130.023 96.669 131.207 96.669ZM148.399 79.168V87.419H159.166V79.168H162.422V99H159.166V90.157H148.399V99H145.143V79.168H148.399ZM185.943 89.047C185.943 92.3277 185.104 94.8683 183.427 96.669C181.774 98.4697 179.53 99.37 176.693 99.37C174.942 99.37 173.375 98.9753 171.994 98.186C170.637 97.372 169.564 96.2003 168.775 94.671C167.986 93.117 167.591 91.2423 167.591 89.047C167.591 85.7663 168.417 83.238 170.07 81.462C171.723 79.686 173.967 78.798 176.804 78.798C178.605 78.798 180.183 79.205 181.54 80.019C182.921 80.8083 183.994 81.9677 184.759 83.497C185.548 85.0017 185.943 86.8517 185.943 89.047ZM170.958 89.047C170.958 91.3903 171.414 93.2527 172.327 94.634C173.264 95.9907 174.744 96.669 176.767 96.669C178.765 96.669 180.233 95.9907 181.17 94.634C182.107 93.2527 182.576 91.3903 182.576 89.047C182.576 86.7037 182.107 84.866 181.17 83.534C180.233 82.202 178.753 81.536 176.73 81.536C174.707 81.536 173.24 82.202 172.327 83.534C171.414 84.866 170.958 86.7037 170.958 89.047ZM207.05 84.163C207.05 85.3963 206.68 86.3583 205.94 87.049C205.2 87.7397 204.251 88.2083 203.091 88.455V88.603C204.325 88.7757 205.398 89.2197 206.31 89.935C207.223 90.6257 207.679 91.711 207.679 93.191C207.679 94.8683 207.05 96.262 205.792 97.372C204.559 98.4573 202.512 99 199.65 99H191.103V79.168H199.613C201.019 79.168 202.277 79.3283 203.387 79.649C204.522 79.945 205.41 80.463 206.051 81.203C206.717 81.9183 207.05 82.905 207.05 84.163ZM203.757 84.57C203.757 83.6327 203.412 82.9543 202.721 82.535C202.055 82.091 200.958 81.869 199.428 81.869H194.359V87.308H198.836C202.117 87.308 203.757 86.3953 203.757 84.57ZM204.312 93.191C204.312 92.0563 203.881 91.2423 203.017 90.749C202.154 90.2557 200.884 90.009 199.206 90.009H194.359V96.373H199.28C200.908 96.373 202.154 96.1387 203.017 95.67C203.881 95.1767 204.312 94.3503 204.312 93.191ZM227.518 99H224.225V81.869H218.379C218.058 86.0377 217.614 89.4047 217.047 91.97C216.48 94.5107 215.727 96.3607 214.79 97.52C213.853 98.6793 212.669 99.259 211.238 99.259C210.917 99.259 210.597 99.2343 210.276 99.185C209.98 99.1603 209.733 99.0987 209.536 99V96.558C209.684 96.6073 209.844 96.6443 210.017 96.669C210.19 96.6937 210.362 96.706 210.535 96.706C211.867 96.706 212.928 95.2877 213.717 92.451C214.531 89.6143 215.148 85.1867 215.567 79.168H227.518V99ZM241.471 78.798C243.173 78.798 244.629 79.168 245.837 79.908C247.071 80.648 248.008 81.6963 248.649 83.053C249.315 84.385 249.648 85.9513 249.648 87.752V89.713H236.069C236.119 91.9577 236.686 93.672 237.771 94.856C238.881 96.0153 240.423 96.595 242.396 96.595C243.654 96.595 244.764 96.484 245.726 96.262C246.713 96.0153 247.724 95.67 248.76 95.226V98.075C247.749 98.519 246.75 98.8397 245.763 99.037C244.777 99.259 243.605 99.37 242.248 99.37C240.374 99.37 238.709 98.9877 237.253 98.223C235.823 97.4583 234.7 96.3237 233.886 94.819C233.097 93.2897 232.702 91.4273 232.702 89.232C232.702 87.0613 233.06 85.199 233.775 83.645C234.515 82.091 235.539 80.8947 236.846 80.056C238.178 79.2173 239.72 78.798 241.471 78.798ZM241.434 81.462C239.88 81.462 238.647 81.9677 237.734 82.979C236.846 83.9657 236.316 85.347 236.143 87.123H246.244C246.22 85.4457 245.825 84.089 245.06 83.053C244.296 81.9923 243.087 81.462 241.434 81.462ZM257.953 79.168V87.419H268.72V79.168H271.976V99H268.72V90.157H257.953V99H254.697V79.168H257.953ZM281.327 91.267C281.327 91.563 281.315 92.007 281.29 92.599C281.265 93.191 281.228 93.783 281.179 94.375C281.154 94.967 281.13 95.4357 281.105 95.781L291.724 79.168H295.72V99H292.686V87.308C292.686 86.9133 292.686 86.3953 292.686 85.754C292.711 85.1127 292.735 84.4837 292.76 83.867C292.785 83.2257 292.809 82.7447 292.834 82.424L282.289 99H278.256V79.168H281.327V91.267ZM303.252 99H299.478L305.139 90.675C304.375 90.4777 303.635 90.1693 302.919 89.75C302.204 89.306 301.624 88.7017 301.18 87.937C300.736 87.1477 300.514 86.1733 300.514 85.014C300.514 83.1147 301.156 81.6717 302.438 80.685C303.721 79.6737 305.423 79.168 307.544 79.168H316.424V99H313.168V91.119H308.358L303.252 99ZM303.659 85.051C303.659 86.1857 304.079 87.0367 304.917 87.604C305.781 88.1467 306.977 88.418 308.506 88.418H313.168V81.869H307.877C306.373 81.869 305.287 82.165 304.621 82.757C303.98 83.349 303.659 84.1137 303.659 85.051Z" fill="#35352A" fill-opacity="0.86"/>
</svg>
