<svg width="390" height="220" viewBox="0 0 390 220" fill="none" xmlns="http://www.w3.org/2000/svg">
<g filter="url(#filter0_d)">
<rect x="14" y="14" width="340" height="170" rx="57" fill="#FFF3E2"/>
</g>
<path d="M47.5072 121.92V138H44.8672V124.17H36.5572V138H33.9172V121.92H47.5072ZM66.6179 129.93C66.6179 132.59 65.9379 134.65 64.5779 136.11C63.2379 137.57 61.4179 138.3 59.1179 138.3C57.6979 138.3 56.4279 137.98 55.3079 137.34C54.2079 136.68 53.3379 135.73 52.6979 134.49C52.0579 133.23 51.7379 131.71 51.7379 129.93C51.7379 127.27 52.4079 125.22 53.7479 123.78C55.0879 122.34 56.9079 121.62 59.2079 121.62C60.6679 121.62 61.9479 121.95 63.0479 122.61C64.1679 123.25 65.0379 124.19 65.6579 125.43C66.2979 126.65 66.6179 128.15 66.6179 129.93ZM54.4679 129.93C54.4679 131.83 54.8379 133.34 55.5779 134.46C56.3379 135.56 57.5379 136.11 59.1779 136.11C60.7979 136.11 61.9879 135.56 62.7479 134.46C63.5079 133.34 63.8879 131.83 63.8879 129.93C63.8879 128.03 63.5079 126.54 62.7479 125.46C61.9879 124.38 60.7879 123.84 59.1479 123.84C57.5079 123.84 56.3179 124.38 55.5779 125.46C54.8379 126.54 54.4679 128.03 54.4679 129.93ZM73.292 131.73C73.292 131.97 73.282 132.33 73.262 132.81C73.242 133.29 73.212 133.77 73.172 134.25C73.152 134.73 73.132 135.11 73.112 135.39L81.722 121.92H84.962V138H82.502V128.52C82.502 128.2 82.502 127.78 82.502 127.26C82.522 126.74 82.542 126.23 82.562 125.73C82.582 125.21 82.602 124.82 82.622 124.56L74.072 138H70.802V121.92H73.292V131.73ZM96.5293 138.3C95.1093 138.3 93.8393 138.01 92.7193 137.43C91.6193 136.85 90.7493 135.95 90.1093 134.73C89.4893 133.51 89.1793 131.95 89.1793 130.05C89.1793 128.07 89.5093 126.46 90.1693 125.22C90.8293 123.98 91.7193 123.07 92.8393 122.49C93.9793 121.91 95.2693 121.62 96.7093 121.62C97.5293 121.62 98.3193 121.71 99.0793 121.89C99.8393 122.05 100.459 122.25 100.939 122.49L100.129 124.68C99.6493 124.5 99.0893 124.33 98.4493 124.17C97.8093 124.01 97.2093 123.93 96.6493 123.93C93.4893 123.93 91.9093 125.96 91.9093 130.02C91.9093 131.96 92.2893 133.45 93.0493 134.49C93.8293 135.51 94.9793 136.02 96.4993 136.02C97.3793 136.02 98.1493 135.93 98.8093 135.75C99.4893 135.57 100.109 135.35 100.669 135.09V137.43C100.129 137.71 99.5293 137.92 98.8693 138.06C98.2293 138.22 97.4493 138.3 96.5293 138.3ZM114.003 121.92H116.883L110.013 129.66L117.453 138H114.393L107.133 129.84V138H104.493V121.92H107.133V129.72L114.003 121.92ZM140.261 121.92V138H137.621V124.17H129.311V138H126.671V121.92H140.261ZM159.372 129.93C159.372 132.59 158.692 134.65 157.332 136.11C155.992 137.57 154.172 138.3 151.872 138.3C150.452 138.3 149.182 137.98 148.062 137.34C146.962 136.68 146.092 135.73 145.452 134.49C144.812 133.23 144.492 131.71 144.492 129.93C144.492 127.27 145.162 125.22 146.502 123.78C147.842 122.34 149.662 121.62 151.962 121.62C153.422 121.62 154.702 121.95 155.802 122.61C156.922 123.25 157.792 124.19 158.412 125.43C159.052 126.65 159.372 128.15 159.372 129.93ZM147.222 129.93C147.222 131.83 147.592 133.34 148.332 134.46C149.092 135.56 150.292 136.11 151.932 136.11C153.552 136.11 154.742 135.56 155.502 134.46C156.262 133.34 156.642 131.83 156.642 129.93C156.642 128.03 156.262 126.54 155.502 125.46C154.742 124.38 153.542 123.84 151.902 123.84C150.262 123.84 149.072 124.38 148.332 125.46C147.592 126.54 147.222 128.03 147.222 129.93ZM179.365 121.92H182.245L175.375 129.66L182.815 138H179.755L172.495 129.84V138H169.855V121.92H172.495V129.72L179.365 121.92ZM191.824 121.65C193.784 121.65 195.234 122.08 196.174 122.94C197.114 123.8 197.584 125.17 197.584 127.05V138H195.664L195.154 135.72H195.034C194.334 136.6 193.594 137.25 192.814 137.67C192.054 138.09 190.994 138.3 189.634 138.3C188.174 138.3 186.964 137.92 186.004 137.16C185.044 136.38 184.564 135.17 184.564 133.53C184.564 131.93 185.194 130.7 186.454 129.84C187.714 128.96 189.654 128.48 192.274 128.4L195.004 128.31V127.35C195.004 126.01 194.714 125.08 194.134 124.56C193.554 124.04 192.734 123.78 191.674 123.78C190.834 123.78 190.034 123.91 189.274 124.17C188.514 124.41 187.804 124.69 187.144 125.01L186.334 123.03C187.034 122.65 187.864 122.33 188.824 122.07C189.784 121.79 190.784 121.65 191.824 121.65ZM192.604 130.23C190.604 130.31 189.214 130.63 188.434 131.19C187.674 131.75 187.294 132.54 187.294 133.56C187.294 134.46 187.564 135.12 188.104 135.54C188.664 135.96 189.374 136.17 190.234 136.17C191.594 136.17 192.724 135.8 193.624 135.06C194.524 134.3 194.974 133.14 194.974 131.58V130.14L192.604 130.23ZM213.65 124.14H208.4V138H205.79V124.14H200.6V121.92H213.65V124.14ZM222.735 121.62C224.115 121.62 225.295 121.92 226.275 122.52C227.275 123.12 228.035 123.97 228.555 125.07C229.095 126.15 229.365 127.42 229.365 128.88V130.47H218.355C218.395 132.29 218.855 133.68 219.735 134.64C220.635 135.58 221.885 136.05 223.485 136.05C224.505 136.05 225.405 135.96 226.185 135.78C226.985 135.58 227.805 135.3 228.645 134.94V137.25C227.825 137.61 227.015 137.87 226.215 138.03C225.415 138.21 224.465 138.3 223.365 138.3C221.845 138.3 220.495 137.99 219.315 137.37C218.155 136.75 217.245 135.83 216.585 134.61C215.945 133.37 215.625 131.86 215.625 130.08C215.625 128.32 215.915 126.81 216.495 125.55C217.095 124.29 217.925 123.32 218.985 122.64C220.065 121.96 221.315 121.62 222.735 121.62ZM222.705 123.78C221.445 123.78 220.445 124.19 219.705 125.01C218.985 125.81 218.555 126.93 218.415 128.37H226.605C226.585 127.01 226.265 125.91 225.645 125.07C225.025 124.21 224.045 123.78 222.705 123.78ZM243.268 121.92V124.14H236.098V138H233.458V121.92H243.268ZM260.124 129.93C260.124 132.59 259.444 134.65 258.084 136.11C256.744 137.57 254.924 138.3 252.624 138.3C251.204 138.3 249.934 137.98 248.814 137.34C247.714 136.68 246.844 135.73 246.204 134.49C245.564 133.23 245.244 131.71 245.244 129.93C245.244 127.27 245.914 125.22 247.254 123.78C248.594 122.34 250.414 121.62 252.714 121.62C254.174 121.62 255.454 121.95 256.554 122.61C257.674 123.25 258.544 124.19 259.164 125.43C259.804 126.65 260.124 128.15 260.124 129.93ZM247.974 129.93C247.974 131.83 248.344 133.34 249.084 134.46C249.844 135.56 251.044 136.11 252.684 136.11C254.304 136.11 255.494 135.56 256.254 134.46C257.014 133.34 257.394 131.83 257.394 129.93C257.394 128.03 257.014 126.54 256.254 125.46C255.494 124.38 254.294 123.84 252.654 123.84C251.014 123.84 249.824 124.38 249.084 125.46C248.344 126.54 247.974 128.03 247.974 129.93ZM271.958 121.62C273.938 121.62 275.528 122.31 276.728 123.69C277.948 125.07 278.558 127.15 278.558 129.93C278.558 132.67 277.948 134.75 276.728 136.17C275.528 137.59 273.928 138.3 271.928 138.3C270.688 138.3 269.658 138.07 268.838 137.61C268.038 137.13 267.408 136.58 266.948 135.96H266.768C266.808 136.3 266.848 136.73 266.888 137.25C266.928 137.77 266.948 138.22 266.948 138.6V145.2H264.308V121.92H266.468L266.828 124.11H266.948C267.428 123.41 268.058 122.82 268.838 122.34C269.618 121.86 270.658 121.62 271.958 121.62ZM271.478 123.84C269.838 123.84 268.678 124.3 267.998 125.22C267.338 126.14 266.988 127.54 266.948 129.42V129.93C266.948 131.91 267.268 133.44 267.908 134.52C268.568 135.58 269.778 136.11 271.538 136.11C272.518 136.11 273.318 135.84 273.938 135.3C274.578 134.76 275.048 134.03 275.348 133.11C275.668 132.17 275.828 131.1 275.828 129.9C275.828 128.06 275.468 126.59 274.748 125.49C274.048 124.39 272.958 123.84 271.478 123.84ZM285.255 131.73C285.255 131.97 285.245 132.33 285.225 132.81C285.205 133.29 285.175 133.77 285.135 134.25C285.115 134.73 285.095 135.11 285.075 135.39L293.685 121.92H296.925V138H294.465V128.52C294.465 128.2 294.465 127.78 294.465 127.26C294.485 126.74 294.505 126.23 294.525 125.73C294.545 125.21 294.565 124.82 294.585 124.56L286.035 138H282.765V121.92H285.255V131.73ZM303.032 138H299.972L304.562 131.25C303.942 131.09 303.342 130.84 302.762 130.5C302.182 130.14 301.712 129.65 301.352 129.03C300.992 128.39 300.812 127.6 300.812 126.66C300.812 125.12 301.332 123.95 302.372 123.15C303.412 122.33 304.792 121.92 306.512 121.92H313.712V138H311.072V131.61H307.172L303.032 138ZM303.362 126.69C303.362 127.61 303.702 128.3 304.382 128.76C305.082 129.2 306.052 129.42 307.292 129.42H311.072V124.11H306.782C305.562 124.11 304.682 124.35 304.142 124.83C303.622 125.31 303.362 125.93 303.362 126.69ZM336.05 121.92V138H333.68V127.74C333.68 127.32 333.69 126.88 333.71 126.42C333.75 125.96 333.79 125.51 333.83 125.07H333.74L328.49 138H326.27L321.17 125.07H321.08C321.14 125.97 321.17 126.89 321.17 127.83V138H318.8V121.92H322.31L327.38 134.85L332.54 121.92H336.05Z" fill="black"/>
<defs>
<filter id="filter0_d" x="0" y="0" width="390" height="220" filterUnits="userSpaceOnUse" color-interpolation-filters="sRGB">
<feFlood flood-opacity="0" result="BackgroundImageFix"/>
<feColorMatrix in="SourceAlpha" type="matrix" values="0 0 0 0 0 0 0 0 0 0 0 0 0 0 0 0 0 0 127 0"/>
<feOffset dx="11" dy="11"/>
<feGaussianBlur stdDeviation="12.5"/>
<feColorMatrix type="matrix" values="0 0 0 0 0 0 0 0 0 0 0 0 0 0 0 0 0 0 0.3 0"/>
<feBlend mode="normal" in2="BackgroundImageFix" result="effect1_dropShadow"/>
<feBlend mode="normal" in="SourceGraphic" in2="effect1_dropShadow" result="shape"/>
</filter>
</defs>
</svg>
