<svg width="400" height="220" viewBox="0 0 400 220" fill="none" xmlns="http://www.w3.org/2000/svg">
<g filter="url(#filter0_d)">
<rect x="14" y="14" width="350" height="170" rx="57" fill="#FFF4E2"/>
</g>
<path d="M106.474 127.3C105.054 127.3 103.784 127.01 102.664 126.43C101.564 125.85 100.694 124.95 100.054 123.73C99.4336 122.51 99.1236 120.95 99.1236 119.05C99.1236 117.07 99.4536 115.46 100.114 114.22C100.774 112.98 101.664 112.07 102.784 111.49C103.924 110.91 105.214 110.62 106.654 110.62C107.474 110.62 108.264 110.71 109.024 110.89C109.784 111.05 110.404 111.25 110.884 111.49L110.074 113.68C109.594 113.5 109.034 113.33 108.394 113.17C107.754 113.01 107.154 112.93 106.594 112.93C103.434 112.93 101.854 114.96 101.854 119.02C101.854 120.96 102.234 122.45 102.994 123.49C103.774 124.51 104.924 125.02 106.444 125.02C107.324 125.02 108.094 124.93 108.754 124.75C109.434 124.57 110.054 124.35 110.614 124.09V126.43C110.074 126.71 109.474 126.92 108.814 127.06C108.174 127.22 107.394 127.3 106.474 127.3ZM128.418 118.93C128.418 121.59 127.738 123.65 126.378 125.11C125.038 126.57 123.218 127.3 120.918 127.3C119.498 127.3 118.228 126.98 117.108 126.34C116.008 125.68 115.138 124.73 114.498 123.49C113.858 122.23 113.538 120.71 113.538 118.93C113.538 116.27 114.208 114.22 115.548 112.78C116.888 111.34 118.708 110.62 121.008 110.62C122.468 110.62 123.748 110.95 124.848 111.61C125.968 112.25 126.838 113.19 127.458 114.43C128.098 115.65 128.418 117.15 128.418 118.93ZM116.268 118.93C116.268 120.83 116.638 122.34 117.378 123.46C118.138 124.56 119.338 125.11 120.978 125.11C122.598 125.11 123.788 124.56 124.548 123.46C125.308 122.34 125.688 120.83 125.688 118.93C125.688 117.03 125.308 115.54 124.548 114.46C123.788 113.38 122.588 112.84 120.948 112.84C119.308 112.84 118.118 113.38 117.378 114.46C116.638 115.54 116.268 117.03 116.268 118.93ZM136.832 110.62C138.672 110.62 140.132 110.99 141.212 111.73C142.312 112.45 142.862 113.49 142.862 114.85C142.862 115.83 142.592 116.61 142.052 117.19C141.512 117.75 140.772 118.16 139.832 118.42V118.54C140.472 118.72 141.062 118.97 141.602 119.29C142.142 119.61 142.572 120.03 142.892 120.55C143.232 121.07 143.402 121.74 143.402 122.56C143.402 123.9 142.842 125.03 141.722 125.95C140.622 126.85 138.892 127.3 136.532 127.3C135.372 127.3 134.322 127.2 133.382 127C132.442 126.82 131.662 126.57 131.042 126.25V123.88C131.722 124.2 132.522 124.49 133.442 124.75C134.382 125.01 135.402 125.14 136.502 125.14C137.702 125.14 138.712 124.94 139.532 124.54C140.372 124.12 140.792 123.41 140.792 122.41C140.792 120.61 139.262 119.71 136.202 119.71H134.042V117.55H135.782C137.162 117.55 138.262 117.37 139.082 117.01C139.922 116.63 140.342 115.99 140.342 115.09C140.342 114.33 140.022 113.76 139.382 113.38C138.762 113 137.862 112.81 136.682 112.81C135.802 112.81 135.022 112.9 134.342 113.08C133.682 113.24 132.952 113.49 132.152 113.83L131.222 111.73C132.902 110.99 134.772 110.62 136.832 110.62ZM159.249 110.92V124.78H161.589V132.58H159.039V127H147.849V132.58H145.329V124.78H146.619C147.999 122.88 149.029 120.72 149.709 118.3C150.409 115.86 150.769 113.4 150.789 110.92H159.249ZM153.129 112.99C153.049 114.35 152.839 115.76 152.499 117.22C152.159 118.66 151.719 120.04 151.179 121.36C150.659 122.68 150.049 123.82 149.349 124.78H156.699V112.99H153.129ZM170.83 110.65C172.79 110.65 174.24 111.08 175.18 111.94C176.12 112.8 176.59 114.17 176.59 116.05V127H174.67L174.16 124.72H174.04C173.34 125.6 172.6 126.25 171.82 126.67C171.06 127.09 170 127.3 168.64 127.3C167.18 127.3 165.97 126.92 165.01 126.16C164.05 125.38 163.57 124.17 163.57 122.53C163.57 120.93 164.2 119.7 165.46 118.84C166.72 117.96 168.66 117.48 171.28 117.4L174.01 117.31V116.35C174.01 115.01 173.72 114.08 173.14 113.56C172.56 113.04 171.74 112.78 170.68 112.78C169.84 112.78 169.04 112.91 168.28 113.17C167.52 113.41 166.81 113.69 166.15 114.01L165.34 112.03C166.04 111.65 166.87 111.33 167.83 111.07C168.79 110.79 169.79 110.65 170.83 110.65ZM171.61 119.23C169.61 119.31 168.22 119.63 167.44 120.19C166.68 120.75 166.3 121.54 166.3 122.56C166.3 123.46 166.57 124.12 167.11 124.54C167.67 124.96 168.38 125.17 169.24 125.17C170.6 125.17 171.73 124.8 172.63 124.06C173.53 123.3 173.98 122.14 173.98 120.58V119.14L171.61 119.23ZM192.657 113.14H187.407V127H184.797V113.14H179.607V110.92H192.657V113.14ZM203.234 117.52C207.414 117.52 209.504 119.04 209.504 122.08C209.504 123.58 208.994 124.78 207.974 125.68C206.954 126.56 205.334 127 203.114 127H195.824V110.92H198.464V117.52H203.234ZM206.864 122.23C206.864 121.25 206.514 120.59 205.814 120.25C205.134 119.89 204.174 119.71 202.934 119.71H198.464V124.87H202.994C204.114 124.87 205.034 124.67 205.754 124.27C206.494 123.87 206.864 123.19 206.864 122.23ZM226.386 127.3C224.966 127.3 223.696 127.01 222.576 126.43C221.476 125.85 220.606 124.95 219.966 123.73C219.346 122.51 219.036 120.95 219.036 119.05C219.036 117.07 219.366 115.46 220.026 114.22C220.686 112.98 221.576 112.07 222.696 111.49C223.836 110.91 225.126 110.62 226.566 110.62C227.386 110.62 228.176 110.71 228.936 110.89C229.696 111.05 230.316 111.25 230.796 111.49L229.986 113.68C229.506 113.5 228.946 113.33 228.306 113.17C227.666 113.01 227.066 112.93 226.506 112.93C223.346 112.93 221.766 114.96 221.766 119.02C221.766 120.96 222.146 122.45 222.906 123.49C223.686 124.51 224.836 125.02 226.356 125.02C227.236 125.02 228.006 124.93 228.666 124.75C229.346 124.57 229.966 124.35 230.526 124.09V126.43C229.986 126.71 229.386 126.92 228.726 127.06C228.086 127.22 227.306 127.3 226.386 127.3ZM247.28 114.97C247.28 115.97 246.98 116.75 246.38 117.31C245.78 117.87 245.01 118.25 244.07 118.45V118.57C245.07 118.71 245.94 119.07 246.68 119.65C247.42 120.21 247.79 121.09 247.79 122.29C247.79 123.65 247.28 124.78 246.26 125.68C245.26 126.56 243.6 127 241.28 127H234.35V110.92H241.25C242.39 110.92 243.41 111.05 244.31 111.31C245.23 111.55 245.95 111.97 246.47 112.57C247.01 113.15 247.28 113.95 247.28 114.97ZM244.61 115.3C244.61 114.54 244.33 113.99 243.77 113.65C243.23 113.29 242.34 113.11 241.1 113.11H236.99V117.52H240.62C243.28 117.52 244.61 116.78 244.61 115.3ZM245.06 122.29C245.06 121.37 244.71 120.71 244.01 120.31C243.31 119.91 242.28 119.71 240.92 119.71H236.99V124.87H240.98C242.3 124.87 243.31 124.68 244.01 124.3C244.71 123.9 245.06 123.23 245.06 122.29ZM265.615 118.93C265.615 121.59 264.935 123.65 263.575 125.11C262.235 126.57 260.415 127.3 258.115 127.3C256.695 127.3 255.425 126.98 254.305 126.34C253.205 125.68 252.335 124.73 251.695 123.49C251.055 122.23 250.735 120.71 250.735 118.93C250.735 116.27 251.405 114.22 252.745 112.78C254.085 111.34 255.905 110.62 258.205 110.62C259.665 110.62 260.945 110.95 262.045 111.61C263.165 112.25 264.035 113.19 264.655 114.43C265.295 115.65 265.615 117.15 265.615 118.93ZM253.465 118.93C253.465 120.83 253.835 122.34 254.575 123.46C255.335 124.56 256.535 125.11 258.175 125.11C259.795 125.11 260.985 124.56 261.745 123.46C262.505 122.34 262.885 120.83 262.885 118.93C262.885 117.03 262.505 115.54 261.745 114.46C260.985 113.38 259.785 112.84 258.145 112.84C256.505 112.84 255.315 113.38 254.575 114.46C253.835 115.54 253.465 117.03 253.465 118.93ZM282.819 104.26C282.679 105.76 282.169 106.9 281.289 107.68C280.429 108.44 279.049 108.82 277.149 108.82C275.189 108.82 273.799 108.44 272.979 107.68C272.179 106.92 271.729 105.78 271.629 104.26H274.089C274.189 105.34 274.469 106.07 274.929 106.45C275.409 106.81 276.169 106.99 277.209 106.99C278.129 106.99 278.849 106.8 279.369 106.42C279.909 106.02 280.229 105.3 280.329 104.26H282.819ZM272.289 120.73C272.289 120.97 272.279 121.33 272.259 121.81C272.239 122.29 272.209 122.77 272.169 123.25C272.149 123.73 272.129 124.11 272.109 124.39L280.719 110.92H283.959V127H281.499V117.52C281.499 117.2 281.499 116.78 281.499 116.26C281.519 115.74 281.539 115.23 281.559 114.73C281.579 114.21 281.599 113.82 281.619 113.56L273.069 127H269.799V110.92H272.289V120.73ZM77.7041 166.3C76.2841 166.3 75.0141 166.01 73.8941 165.43C72.7941 164.85 71.9241 163.95 71.2841 162.73C70.6641 161.51 70.3541 159.95 70.3541 158.05C70.3541 156.07 70.6841 154.46 71.3441 153.22C72.0041 151.98 72.8941 151.07 74.0141 150.49C75.1541 149.91 76.4441 149.62 77.8841 149.62C78.7041 149.62 79.4941 149.71 80.2541 149.89C81.0141 150.05 81.6341 150.25 82.1141 150.49L81.3041 152.68C80.8241 152.5 80.2641 152.33 79.6241 152.17C78.9841 152.01 78.3841 151.93 77.8241 151.93C74.6641 151.93 73.0841 153.96 73.0841 158.02C73.0841 159.96 73.4641 161.45 74.2241 162.49C75.0041 163.51 76.1541 164.02 77.6741 164.02C78.5541 164.02 79.3241 163.93 79.9841 163.75C80.6641 163.57 81.2841 163.35 81.8441 163.09V165.43C81.3041 165.71 80.7041 165.92 80.0441 166.06C79.4041 166.22 78.6241 166.3 77.7041 166.3ZM99.2582 149.92V166H96.6182V152.17H88.3082V166H85.6682V149.92H99.2582ZM106.879 159.73C106.879 159.97 106.869 160.33 106.849 160.81C106.829 161.29 106.799 161.77 106.759 162.25C106.739 162.73 106.719 163.11 106.699 163.39L115.309 149.92H118.549V166H116.089V156.52C116.089 156.2 116.089 155.78 116.089 155.26C116.109 154.74 116.129 154.23 116.149 153.73C116.169 153.21 116.189 152.82 116.209 152.56L107.659 166H104.389V149.92H106.879V159.73ZM130.116 166.3C128.696 166.3 127.426 166.01 126.306 165.43C125.206 164.85 124.336 163.95 123.696 162.73C123.076 161.51 122.766 159.95 122.766 158.05C122.766 156.07 123.096 154.46 123.756 153.22C124.416 151.98 125.306 151.07 126.426 150.49C127.566 149.91 128.856 149.62 130.296 149.62C131.116 149.62 131.906 149.71 132.666 149.89C133.426 150.05 134.046 150.25 134.526 150.49L133.716 152.68C133.236 152.5 132.676 152.33 132.036 152.17C131.396 152.01 130.796 151.93 130.236 151.93C127.076 151.93 125.496 153.96 125.496 158.02C125.496 159.96 125.876 161.45 126.636 162.49C127.416 163.51 128.566 164.02 130.086 164.02C130.966 164.02 131.736 163.93 132.396 163.75C133.076 163.57 133.696 163.35 134.256 163.09V165.43C133.716 165.71 133.116 165.92 132.456 166.06C131.816 166.22 131.036 166.3 130.116 166.3ZM152.06 157.93C152.06 160.59 151.38 162.65 150.02 164.11C148.68 165.57 146.86 166.3 144.56 166.3C143.14 166.3 141.87 165.98 140.75 165.34C139.65 164.68 138.78 163.73 138.14 162.49C137.5 161.23 137.18 159.71 137.18 157.93C137.18 155.27 137.85 153.22 139.19 151.78C140.53 150.34 142.35 149.62 144.65 149.62C146.11 149.62 147.39 149.95 148.49 150.61C149.61 151.25 150.48 152.19 151.1 153.43C151.74 154.65 152.06 156.15 152.06 157.93ZM139.91 157.93C139.91 159.83 140.28 161.34 141.02 162.46C141.78 163.56 142.98 164.11 144.62 164.11C146.24 164.11 147.43 163.56 148.19 162.46C148.95 161.34 149.33 159.83 149.33 157.93C149.33 156.03 148.95 154.54 148.19 153.46C147.43 152.38 146.23 151.84 144.59 151.84C142.95 151.84 141.76 152.38 141.02 153.46C140.28 154.54 139.91 156.03 139.91 157.93ZM165.754 149.92H168.634L161.764 157.66L169.204 166H166.144L158.884 157.84V166H156.244V149.92H158.884V157.72L165.754 149.92ZM186.072 149.62C188.052 149.62 189.642 150.31 190.842 151.69C192.062 153.07 192.672 155.15 192.672 157.93C192.672 160.67 192.062 162.75 190.842 164.17C189.642 165.59 188.042 166.3 186.042 166.3C184.802 166.3 183.772 166.07 182.952 165.61C182.152 165.13 181.522 164.58 181.062 163.96H180.882C180.922 164.3 180.962 164.73 181.002 165.25C181.042 165.77 181.062 166.22 181.062 166.6V173.2H178.422V149.92H180.582L180.942 152.11H181.062C181.542 151.41 182.172 150.82 182.952 150.34C183.732 149.86 184.772 149.62 186.072 149.62ZM185.592 151.84C183.952 151.84 182.792 152.3 182.112 153.22C181.452 154.14 181.102 155.54 181.062 157.42V157.93C181.062 159.91 181.382 161.44 182.022 162.52C182.682 163.58 183.892 164.11 185.652 164.11C186.632 164.11 187.432 163.84 188.052 163.3C188.692 162.76 189.162 162.03 189.462 161.11C189.782 160.17 189.942 159.1 189.942 157.9C189.942 156.06 189.582 154.59 188.862 153.49C188.162 152.39 187.072 151.84 185.592 151.84ZM203.089 149.62C204.469 149.62 205.649 149.92 206.629 150.52C207.629 151.12 208.389 151.97 208.909 153.07C209.449 154.15 209.719 155.42 209.719 156.88V158.47H198.709C198.749 160.29 199.209 161.68 200.089 162.64C200.989 163.58 202.239 164.05 203.839 164.05C204.859 164.05 205.759 163.96 206.539 163.78C207.339 163.58 208.159 163.3 208.999 162.94V165.25C208.179 165.61 207.369 165.87 206.569 166.03C205.769 166.21 204.819 166.3 203.719 166.3C202.199 166.3 200.849 165.99 199.669 165.37C198.509 164.75 197.599 163.83 196.939 162.61C196.299 161.37 195.979 159.86 195.979 158.08C195.979 156.32 196.269 154.81 196.849 153.55C197.449 152.29 198.279 151.32 199.339 150.64C200.419 149.96 201.669 149.62 203.089 149.62ZM203.059 151.78C201.799 151.78 200.799 152.19 200.059 153.01C199.339 153.81 198.909 154.93 198.769 156.37H206.959C206.939 155.01 206.619 153.91 205.999 153.07C205.379 152.21 204.399 151.78 203.059 151.78ZM229.683 171.58H227.103V166H213.813V149.92H216.453V163.78H224.763V149.92H227.403V163.81H229.683V171.58ZM238.978 149.62C240.358 149.62 241.538 149.92 242.518 150.52C243.518 151.12 244.278 151.97 244.798 153.07C245.338 154.15 245.608 155.42 245.608 156.88V158.47H234.598C234.638 160.29 235.098 161.68 235.978 162.64C236.878 163.58 238.128 164.05 239.728 164.05C240.748 164.05 241.648 163.96 242.428 163.78C243.228 163.58 244.048 163.3 244.888 162.94V165.25C244.068 165.61 243.258 165.87 242.458 166.03C241.658 166.21 240.708 166.3 239.608 166.3C238.088 166.3 236.738 165.99 235.558 165.37C234.398 164.75 233.488 163.83 232.828 162.61C232.188 161.37 231.868 159.86 231.868 158.08C231.868 156.32 232.158 154.81 232.738 153.55C233.338 152.29 234.168 151.32 235.228 150.64C236.308 149.96 237.558 149.62 238.978 149.62ZM238.948 151.78C237.688 151.78 236.688 152.19 235.948 153.01C235.228 153.81 234.798 154.93 234.658 156.37H242.848C242.828 155.01 242.508 153.91 241.888 153.07C241.268 152.21 240.288 151.78 238.948 151.78ZM263.291 149.92V166H260.651V152.17H252.341V166H249.701V149.92H263.291ZM279.522 152.14H274.272V166H271.662V152.14H266.472V149.92H279.522V152.14ZM296.377 157.93C296.377 160.59 295.697 162.65 294.337 164.11C292.997 165.57 291.177 166.3 288.877 166.3C287.457 166.3 286.187 165.98 285.067 165.34C283.967 164.68 283.097 163.73 282.457 162.49C281.817 161.23 281.497 159.71 281.497 157.93C281.497 155.27 282.167 153.22 283.507 151.78C284.847 150.34 286.667 149.62 288.967 149.62C290.427 149.62 291.707 149.95 292.807 150.61C293.927 151.25 294.797 152.19 295.417 153.43C296.057 154.65 296.377 156.15 296.377 157.93ZM284.227 157.93C284.227 159.83 284.597 161.34 285.337 162.46C286.097 163.56 287.297 164.11 288.937 164.11C290.557 164.11 291.747 163.56 292.507 162.46C293.267 161.34 293.647 159.83 293.647 157.93C293.647 156.03 293.267 154.54 292.507 153.46C291.747 152.38 290.547 151.84 288.907 151.84C287.267 151.84 286.077 152.38 285.337 153.46C284.597 154.54 284.227 156.03 284.227 157.93ZM313.491 153.97C313.491 154.97 313.191 155.75 312.591 156.31C311.991 156.87 311.221 157.25 310.281 157.45V157.57C311.281 157.71 312.151 158.07 312.891 158.65C313.631 159.21 314.001 160.09 314.001 161.29C314.001 162.65 313.491 163.78 312.471 164.68C311.471 165.56 309.811 166 307.491 166H300.561V149.92H307.461C308.601 149.92 309.621 150.05 310.521 150.31C311.441 150.55 312.161 150.97 312.681 151.57C313.221 152.15 313.491 152.95 313.491 153.97ZM310.821 154.3C310.821 153.54 310.541 152.99 309.981 152.65C309.441 152.29 308.551 152.11 307.311 152.11H303.201V156.52H306.831C309.491 156.52 310.821 155.78 310.821 154.3ZM311.271 161.29C311.271 160.37 310.921 159.71 310.221 159.31C309.521 158.91 308.491 158.71 307.131 158.71H303.201V163.87H307.191C308.511 163.87 309.521 163.68 310.221 163.3C310.921 162.9 311.271 162.23 311.271 161.29Z" fill="black"/>
<defs>
<filter id="filter0_d" x="0" y="0" width="400" height="220" filterUnits="userSpaceOnUse" color-interpolation-filters="sRGB">
<feFlood flood-opacity="0" result="BackgroundImageFix"/>
<feColorMatrix in="SourceAlpha" type="matrix" values="0 0 0 0 0 0 0 0 0 0 0 0 0 0 0 0 0 0 127 0"/>
<feOffset dx="11" dy="11"/>
<feGaussianBlur stdDeviation="12.5"/>
<feColorMatrix type="matrix" values="0 0 0 0 0 0 0 0 0 0 0 0 0 0 0 0 0 0 0.3 0"/>
<feBlend mode="normal" in2="BackgroundImageFix" result="effect1_dropShadow"/>
<feBlend mode="normal" in="SourceGraphic" in2="effect1_dropShadow" result="shape"/>
</filter>
</defs>
</svg>
