<svg width="390" height="220" viewBox="0 0 390 220" fill="none" xmlns="http://www.w3.org/2000/svg">
<g filter="url(#filter0_d)">
<rect x="14" y="14" width="340" height="170" rx="57" fill="#FFF4E2"/>
</g>
<path d="M74.7201 121.92V138H72.0801V124.17H63.7701V138H61.1301V121.92H74.7201ZM86.0608 121.62C87.4408 121.62 88.6208 121.92 89.6008 122.52C90.6008 123.12 91.3608 123.97 91.8808 125.07C92.4208 126.15 92.6908 127.42 92.6908 128.88V130.47H81.6808C81.7208 132.29 82.1808 133.68 83.0608 134.64C83.9608 135.58 85.2108 136.05 86.8108 136.05C87.8308 136.05 88.7308 135.96 89.5108 135.78C90.3108 135.58 91.1308 135.3 91.9708 134.94V137.25C91.1508 137.61 90.3408 137.87 89.5408 138.03C88.7408 138.21 87.7908 138.3 86.6908 138.3C85.1708 138.3 83.8208 137.99 82.6408 137.37C81.4808 136.75 80.5708 135.83 79.9108 134.61C79.2708 133.37 78.9508 131.86 78.9508 130.08C78.9508 128.32 79.2408 126.81 79.8208 125.55C80.4208 124.29 81.2508 123.32 82.3108 122.64C83.3908 121.96 84.6408 121.62 86.0608 121.62ZM86.0308 123.78C84.7708 123.78 83.7708 124.19 83.0308 125.01C82.3108 125.81 81.8808 126.93 81.7408 128.37H89.9308C89.9108 127.01 89.5908 125.91 88.9708 125.07C88.3508 124.21 87.3708 123.78 86.0308 123.78ZM104.434 121.62C106.414 121.62 108.004 122.31 109.204 123.69C110.424 125.07 111.034 127.15 111.034 129.93C111.034 132.67 110.424 134.75 109.204 136.17C108.004 137.59 106.404 138.3 104.404 138.3C103.164 138.3 102.134 138.07 101.314 137.61C100.514 137.13 99.8844 136.58 99.4244 135.96H99.2444C99.2844 136.3 99.3244 136.73 99.3644 137.25C99.4044 137.77 99.4244 138.22 99.4244 138.6V145.2H96.7844V121.92H98.9444L99.3044 124.11H99.4244C99.9044 123.41 100.534 122.82 101.314 122.34C102.094 121.86 103.134 121.62 104.434 121.62ZM103.954 123.84C102.314 123.84 101.154 124.3 100.474 125.22C99.8144 126.14 99.4644 127.54 99.4244 129.42V129.93C99.4244 131.91 99.7444 133.44 100.384 134.52C101.044 135.58 102.254 136.11 104.014 136.11C104.994 136.11 105.794 135.84 106.414 135.3C107.054 134.76 107.524 134.03 107.824 133.11C108.144 132.17 108.304 131.1 108.304 129.9C108.304 128.06 107.944 126.59 107.224 125.49C106.524 124.39 105.434 123.84 103.954 123.84ZM121.451 121.62C122.831 121.62 124.011 121.92 124.991 122.52C125.991 123.12 126.751 123.97 127.271 125.07C127.811 126.15 128.081 127.42 128.081 128.88V130.47H117.071C117.111 132.29 117.571 133.68 118.451 134.64C119.351 135.58 120.601 136.05 122.201 136.05C123.221 136.05 124.121 135.96 124.901 135.78C125.701 135.58 126.521 135.3 127.361 134.94V137.25C126.541 137.61 125.731 137.87 124.931 138.03C124.131 138.21 123.181 138.3 122.081 138.3C120.561 138.3 119.211 137.99 118.031 137.37C116.871 136.75 115.961 135.83 115.301 134.61C114.661 133.37 114.341 131.86 114.341 130.08C114.341 128.32 114.631 126.81 115.211 125.55C115.811 124.29 116.641 123.32 117.701 122.64C118.781 121.96 120.031 121.62 121.451 121.62ZM121.421 123.78C120.161 123.78 119.161 124.19 118.421 125.01C117.701 125.81 117.271 126.93 117.131 128.37H125.321C125.301 127.01 124.981 125.91 124.361 125.07C123.741 124.21 122.761 123.78 121.421 123.78ZM145.195 115.26C145.055 116.76 144.545 117.9 143.665 118.68C142.805 119.44 141.425 119.82 139.525 119.82C137.565 119.82 136.175 119.44 135.355 118.68C134.555 117.92 134.105 116.78 134.005 115.26H136.465C136.565 116.34 136.845 117.07 137.305 117.45C137.785 117.81 138.545 117.99 139.585 117.99C140.505 117.99 141.225 117.8 141.745 117.42C142.285 117.02 142.605 116.3 142.705 115.26H145.195ZM134.665 131.73C134.665 131.97 134.655 132.33 134.635 132.81C134.615 133.29 134.585 133.77 134.545 134.25C134.525 134.73 134.505 135.11 134.485 135.39L143.095 121.92H146.335V138H143.875V128.52C143.875 128.2 143.875 127.78 143.875 127.26C143.895 126.74 143.915 126.23 143.935 125.73C143.955 125.21 143.975 124.82 143.995 124.56L135.445 138H132.175V121.92H134.665V131.73ZM162.552 124.14H157.302V138H154.692V124.14H149.502V121.92H162.552V124.14ZM168.21 131.73C168.21 131.97 168.2 132.33 168.18 132.81C168.16 133.29 168.13 133.77 168.09 134.25C168.07 134.73 168.05 135.11 168.03 135.39L176.64 121.92H179.88V138H177.42V128.52C177.42 128.2 177.42 127.78 177.42 127.26C177.44 126.74 177.46 126.23 177.48 125.73C177.5 125.21 177.52 124.82 177.54 124.56L168.99 138H165.72V121.92H168.21V131.73ZM200.806 121.92H203.686L196.816 129.66L204.256 138H201.196L193.936 129.84V138H191.296V121.92H193.936V129.72L200.806 121.92ZM230.724 121.92V138H228.354V127.74C228.354 127.32 228.364 126.88 228.384 126.42C228.424 125.96 228.464 125.51 228.504 125.07H228.414L223.164 138H220.944L215.844 125.07H215.754C215.814 125.97 215.844 126.89 215.844 127.83V138H213.474V121.92H216.984L222.054 134.85L227.214 121.92H230.724ZM242.067 121.62C243.447 121.62 244.627 121.92 245.607 122.52C246.607 123.12 247.367 123.97 247.887 125.07C248.427 126.15 248.697 127.42 248.697 128.88V130.47H237.687C237.727 132.29 238.187 133.68 239.067 134.64C239.967 135.58 241.217 136.05 242.817 136.05C243.837 136.05 244.737 135.96 245.517 135.78C246.317 135.58 247.137 135.3 247.977 134.94V137.25C247.157 137.61 246.347 137.87 245.547 138.03C244.747 138.21 243.797 138.3 242.697 138.3C241.177 138.3 239.827 137.99 238.647 137.37C237.487 136.75 236.577 135.83 235.917 134.61C235.277 133.37 234.957 131.86 234.957 130.08C234.957 128.32 235.247 126.81 235.827 125.55C236.427 124.29 237.257 123.32 238.317 122.64C239.397 121.96 240.647 121.62 242.067 121.62ZM242.037 123.78C240.777 123.78 239.777 124.19 239.037 125.01C238.317 125.81 237.887 126.93 237.747 128.37H245.937C245.917 127.01 245.597 125.91 244.977 125.07C244.357 124.21 243.377 123.78 242.037 123.78ZM255.43 121.92V128.61H264.16V121.92H266.8V138H264.16V130.83H255.43V138H252.79V121.92H255.43ZM292.772 129.93C292.772 132.59 292.132 134.65 290.852 136.11C289.572 137.57 287.842 138.3 285.662 138.3C283.622 138.3 281.972 137.66 280.712 136.38C279.472 135.1 278.772 133.25 278.612 130.83H274.532V138H271.892V121.92H274.532V128.61H278.642C278.862 126.35 279.592 124.62 280.832 123.42C282.072 122.22 283.702 121.62 285.722 121.62C287.102 121.62 288.322 121.95 289.382 122.61C290.442 123.25 291.272 124.19 291.872 125.43C292.472 126.65 292.772 128.15 292.772 129.93ZM281.312 129.93C281.312 131.95 281.662 133.49 282.362 134.55C283.062 135.59 284.172 136.11 285.692 136.11C287.232 136.11 288.342 135.59 289.022 134.55C289.702 133.49 290.042 131.95 290.042 129.93C290.042 127.91 289.692 126.39 288.992 125.37C288.312 124.35 287.212 123.84 285.692 123.84C284.172 123.84 283.062 124.35 282.362 125.37C281.662 126.39 281.312 127.91 281.312 129.93Z" fill="black"/>
<defs>
<filter id="filter0_d" x="0" y="0" width="390" height="220" filterUnits="userSpaceOnUse" color-interpolation-filters="sRGB">
<feFlood flood-opacity="0" result="BackgroundImageFix"/>
<feColorMatrix in="SourceAlpha" type="matrix" values="0 0 0 0 0 0 0 0 0 0 0 0 0 0 0 0 0 0 127 0"/>
<feOffset dx="11" dy="11"/>
<feGaussianBlur stdDeviation="12.5"/>
<feColorMatrix type="matrix" values="0 0 0 0 0 0 0 0 0 0 0 0 0 0 0 0 0 0 0.3 0"/>
<feBlend mode="normal" in2="BackgroundImageFix" result="effect1_dropShadow"/>
<feBlend mode="normal" in="SourceGraphic" in2="effect1_dropShadow" result="shape"/>
</filter>
</defs>
</svg>
