<svg width="286" height="36" viewBox="0 0 286 36" fill="none" xmlns="http://www.w3.org/2000/svg">
<path d="M0.447734 27V2.01H19.2077V27H16.0927V4.775H3.59773V27H0.447734ZM28.5333 19.685C28.5333 19.965 28.5217 20.385 28.4983 20.945C28.475 21.505 28.44 22.065 28.3933 22.625C28.37 23.185 28.3467 23.6283 28.3233 23.955L38.3683 8.24H42.1483V27H39.2783V15.94C39.2783 15.5667 39.2783 15.0767 39.2783 14.47C39.3017 13.8633 39.325 13.2683 39.3483 12.685C39.3717 12.0783 39.395 11.6233 39.4183 11.32L29.4433 27H25.6283V8.24H28.5333V19.685ZM57.0436 7.89C59.3536 7.89 61.2086 8.695 62.6086 10.305C64.0319 11.915 64.7436 14.3417 64.7436 17.585C64.7436 20.7817 64.0319 23.2083 62.6086 24.865C61.2086 26.5217 59.3419 27.35 57.0086 27.35C55.5619 27.35 54.3602 27.0817 53.4036 26.545C52.4702 25.985 51.7352 25.3433 51.1986 24.62H50.9886C51.0352 25.0167 51.0819 25.5183 51.1286 26.125C51.1752 26.7317 51.1986 27.2567 51.1986 27.7V35.4H48.1186V8.24H50.6386L51.0586 10.795H51.1986C51.7586 9.97833 52.4936 9.29 53.4036 8.73C54.3136 8.17 55.5269 7.89 57.0436 7.89ZM56.4836 10.48C54.5702 10.48 53.2169 11.0167 52.4236 12.09C51.6536 13.1633 51.2452 14.7967 51.1986 16.99V17.585C51.1986 19.895 51.5719 21.68 52.3186 22.94C53.0886 24.1767 54.5002 24.795 56.5536 24.795C57.6969 24.795 58.6302 24.48 59.3536 23.85C60.1002 23.22 60.6486 22.3683 60.9986 21.295C61.3719 20.1983 61.5586 18.95 61.5586 17.55C61.5586 15.4033 61.1386 13.6883 60.2986 12.405C59.4819 11.1217 58.2102 10.48 56.4836 10.48ZM85.9618 17.585C85.9618 20.6883 85.1684 23.0917 83.5818 24.795C82.0184 26.4983 79.8951 27.35 77.2118 27.35C75.5551 27.35 74.0734 26.9767 72.7668 26.23C71.4834 25.46 70.4684 24.3517 69.7218 22.905C68.9751 21.435 68.6018 19.6617 68.6018 17.585C68.6018 14.4817 69.3834 12.09 70.9468 10.41C72.5101 8.73 74.6334 7.89 77.3168 7.89C79.0201 7.89 80.5134 8.275 81.7968 9.045C83.1034 9.79167 84.1184 10.8883 84.8418 12.335C85.5884 13.7583 85.9618 15.5083 85.9618 17.585ZM71.7868 17.585C71.7868 19.8017 72.2184 21.5633 73.0818 22.87C73.9684 24.1533 75.3684 24.795 77.2818 24.795C79.1718 24.795 80.5601 24.1533 81.4468 22.87C82.3334 21.5633 82.7768 19.8017 82.7768 17.585C82.7768 15.3683 82.3334 13.63 81.4468 12.37C80.5601 11.11 79.1601 10.48 77.2468 10.48C75.3334 10.48 73.9451 11.11 73.0818 12.37C72.2184 13.63 71.7868 15.3683 71.7868 17.585ZM102.288 8.24V10.83H93.9232V27H90.8432V8.24H102.288ZM120.858 27.35C119.202 27.35 117.72 27.0117 116.413 26.335C115.13 25.6583 114.115 24.6083 113.368 23.185C112.645 21.7617 112.283 19.9417 112.283 17.725C112.283 15.415 112.668 13.5367 113.438 12.09C114.208 10.6433 115.247 9.58167 116.553 8.905C117.883 8.22833 119.388 7.89 121.068 7.89C122.025 7.89 122.947 7.995 123.833 8.205C124.72 8.39167 125.443 8.625 126.003 8.905L125.058 11.46C124.498 11.25 123.845 11.0517 123.098 10.865C122.352 10.6783 121.652 10.585 120.998 10.585C117.312 10.585 115.468 12.9533 115.468 17.69C115.468 19.9533 115.912 21.6917 116.798 22.905C117.708 24.095 119.05 24.69 120.823 24.69C121.85 24.69 122.748 24.585 123.518 24.375C124.312 24.165 125.035 23.9083 125.688 23.605V26.335C125.058 26.6617 124.358 26.9067 123.588 27.07C122.842 27.2567 121.932 27.35 120.858 27.35ZM157.623 8.24V27H154.858V15.03C154.858 14.54 154.87 14.0267 154.893 13.49C154.94 12.9533 154.987 12.4283 155.033 11.915H154.928L148.803 27H146.213L140.263 11.915H140.158C140.228 12.965 140.263 14.0383 140.263 15.135V27H137.498V8.24H141.593L147.508 23.325L153.528 8.24H157.623ZM170.717 7.925C173.003 7.925 174.695 8.42667 175.792 9.43C176.888 10.4333 177.437 12.0317 177.437 14.225V27H175.197L174.602 24.34H174.462C173.645 25.3667 172.782 26.125 171.872 26.615C170.985 27.105 169.748 27.35 168.162 27.35C166.458 27.35 165.047 26.9067 163.927 26.02C162.807 25.11 162.247 23.6983 162.247 21.785C162.247 19.9183 162.982 18.4833 164.452 17.48C165.922 16.4533 168.185 15.8933 171.242 15.8L174.427 15.695V14.575C174.427 13.0117 174.088 11.9267 173.412 11.32C172.735 10.7133 171.778 10.41 170.542 10.41C169.562 10.41 168.628 10.5617 167.742 10.865C166.855 11.145 166.027 11.4717 165.257 11.845L164.312 9.535C165.128 9.09167 166.097 8.71833 167.217 8.415C168.337 8.08833 169.503 7.925 170.717 7.925ZM171.627 17.935C169.293 18.0283 167.672 18.4017 166.762 19.055C165.875 19.7083 165.432 20.63 165.432 21.82C165.432 22.87 165.747 23.64 166.377 24.13C167.03 24.62 167.858 24.865 168.862 24.865C170.448 24.865 171.767 24.4333 172.817 23.57C173.867 22.6833 174.392 21.33 174.392 19.51V17.83L171.627 17.935ZM197.511 27H194.396V10.795H188.866C188.563 14.7383 188.143 17.9233 187.606 20.35C187.069 22.7533 186.358 24.5033 185.471 25.6C184.584 26.6967 183.464 27.245 182.111 27.245C181.808 27.245 181.504 27.2217 181.201 27.175C180.921 27.1517 180.688 27.0933 180.501 27V24.69C180.641 24.7367 180.793 24.7717 180.956 24.795C181.119 24.8183 181.283 24.83 181.446 24.83C182.706 24.83 183.709 23.4883 184.456 20.805C185.226 18.1217 185.809 13.9333 186.206 8.24H197.511V27ZM206.37 19.685C206.37 19.965 206.359 20.385 206.335 20.945C206.312 21.505 206.277 22.065 206.23 22.625C206.207 23.185 206.184 23.6283 206.16 23.955L216.205 8.24H219.985V27H217.115V15.94C217.115 15.5667 217.115 15.0767 217.115 14.47C217.139 13.8633 217.162 13.2683 217.185 12.685C217.209 12.0783 217.232 11.6233 217.255 11.32L207.28 27H203.465V8.24H206.37V19.685ZM229.035 8.24V16.045H239.22V8.24H242.3V27H239.22V18.635H229.035V27H225.955V8.24H229.035ZM264.551 17.585C264.551 20.6883 263.757 23.0917 262.171 24.795C260.607 26.4983 258.484 27.35 255.801 27.35C254.144 27.35 252.662 26.9767 251.356 26.23C250.072 25.46 249.057 24.3517 248.311 22.905C247.564 21.435 247.191 19.6617 247.191 17.585C247.191 14.4817 247.972 12.09 249.536 10.41C251.099 8.73 253.222 7.89 255.906 7.89C257.609 7.89 259.102 8.275 260.386 9.045C261.692 9.79167 262.707 10.8883 263.431 12.335C264.177 13.7583 264.551 15.5083 264.551 17.585ZM250.376 17.585C250.376 19.8017 250.807 21.5633 251.671 22.87C252.557 24.1533 253.957 24.795 255.871 24.795C257.761 24.795 259.149 24.1533 260.036 22.87C260.922 21.5633 261.366 19.8017 261.366 17.585C261.366 15.3683 260.922 13.63 260.036 12.37C259.149 11.11 257.749 10.48 255.836 10.48C253.922 10.48 252.534 11.11 251.671 12.37C250.807 13.63 250.376 15.3683 250.376 17.585ZM284.622 0.469999C284.459 2.22 283.864 3.55 282.837 4.46C281.834 5.34667 280.224 5.79 278.007 5.79C275.72 5.79 274.099 5.34667 273.142 4.46C272.209 3.57333 271.684 2.24333 271.567 0.469999H274.437C274.554 1.73 274.88 2.58166 275.417 3.025C275.977 3.445 276.864 3.655 278.077 3.655C279.15 3.655 279.99 3.43333 280.597 2.99C281.227 2.52333 281.6 1.68333 281.717 0.469999H284.622ZM272.337 19.685C272.337 19.965 272.325 20.385 272.302 20.945C272.279 21.505 272.244 22.065 272.197 22.625C272.174 23.185 272.15 23.6283 272.127 23.955L282.172 8.24H285.952V27H283.082V15.94C283.082 15.5667 283.082 15.0767 283.082 14.47C283.105 13.8633 283.129 13.2683 283.152 12.685C283.175 12.0783 283.199 11.6233 283.222 11.32L273.247 27H269.432V8.24H272.337V19.685Z" fill="#534229"/>
</svg>
