<svg width="337" height="160" viewBox="0 0 337 160" fill="none" xmlns="http://www.w3.org/2000/svg">
<path d="M0.588145 35V2.87H24.7081V35H20.7031V6.425H4.63814V35H0.588145ZM53.9332 22.895C53.9332 26.885 52.9132 29.975 50.8732 32.165C48.8632 34.355 46.1332 35.45 42.6832 35.45C40.5532 35.45 38.6482 34.97 36.9682 34.01C35.3182 33.02 34.0132 31.595 33.0532 29.735C32.0932 27.845 31.6132 25.565 31.6132 22.895C31.6132 18.905 32.6182 15.83 34.6282 13.67C36.6382 11.51 39.3682 10.43 42.8182 10.43C45.0082 10.43 46.9282 10.925 48.5782 11.915C50.2582 12.875 51.5632 14.285 52.4932 16.145C53.4532 17.975 53.9332 20.225 53.9332 22.895ZM35.7082 22.895C35.7082 25.745 36.2632 28.01 37.3732 29.69C38.5132 31.34 40.3132 32.165 42.7732 32.165C45.2032 32.165 46.9882 31.34 48.1282 29.69C49.2682 28.01 49.8382 25.745 49.8382 22.895C49.8382 20.045 49.2682 17.81 48.1282 16.19C46.9882 14.57 45.1882 13.76 42.7282 13.76C40.2682 13.76 38.4832 14.57 37.3732 16.19C36.2632 17.81 35.7082 20.045 35.7082 22.895ZM78.5693 35H74.5643V14.165H67.4543C67.0643 19.235 66.5243 23.33 65.8343 26.45C65.1443 29.54 64.2293 31.79 63.0893 33.2C61.9493 34.61 60.5093 35.315 58.7693 35.315C58.3793 35.315 57.9893 35.285 57.5993 35.225C57.2393 35.195 56.9393 35.12 56.6993 35V32.03C56.8793 32.09 57.0743 32.135 57.2843 32.165C57.4943 32.195 57.7043 32.21 57.9143 32.21C59.5343 32.21 60.8243 30.485 61.7843 27.035C62.7743 23.585 63.5243 18.2 64.0343 10.88H78.5693V35ZM82.4449 10.88H86.6749L91.8949 24.605C92.3449 25.805 92.7499 26.96 93.1099 28.07C93.4699 29.15 93.7399 30.185 93.9199 31.175H94.0999C94.2799 30.425 94.5649 29.45 94.9549 28.25C95.3449 27.02 95.7499 25.79 96.1699 24.56L101.075 10.88H105.35L94.9549 38.33C94.1149 40.61 93.0199 42.425 91.6699 43.775C90.3499 45.125 88.5199 45.8 86.1799 45.8C85.4599 45.8 84.8299 45.755 84.2899 45.665C83.7499 45.605 83.2849 45.53 82.8949 45.44V42.29C83.2249 42.35 83.6149 42.41 84.0649 42.47C84.5449 42.53 85.0399 42.56 85.5499 42.56C86.9299 42.56 88.0399 42.17 88.8799 41.39C89.7499 40.61 90.4249 39.575 90.9049 38.285L92.1649 35.09L82.4449 10.88ZM112.629 10.88V19.655C112.629 22.415 114.174 23.795 117.264 23.795C118.764 23.795 120.129 23.57 121.359 23.12C122.589 22.64 123.849 22.01 125.139 21.23V10.88H129.099V35H125.139V24.245C123.789 25.115 122.454 25.805 121.134 26.315C119.844 26.795 118.284 27.035 116.454 27.035C113.994 27.035 112.074 26.39 110.694 25.1C109.344 23.81 108.669 22.085 108.669 19.925V10.88H112.629ZM145.897 10.475C148.837 10.475 151.012 11.12 152.422 12.41C153.832 13.7 154.537 15.755 154.537 18.575V35H151.657L150.892 31.58H150.712C149.662 32.9 148.552 33.875 147.382 34.505C146.242 35.135 144.652 35.45 142.612 35.45C140.422 35.45 138.607 34.88 137.167 33.74C135.727 32.57 135.007 30.755 135.007 28.295C135.007 25.895 135.952 24.05 137.842 22.76C139.732 21.44 142.642 20.72 146.572 20.6L150.667 20.465V19.025C150.667 17.015 150.232 15.62 149.362 14.84C148.492 14.06 147.262 13.67 145.672 13.67C144.412 13.67 143.212 13.865 142.072 14.255C140.932 14.615 139.867 15.035 138.877 15.515L137.662 12.545C138.712 11.975 139.957 11.495 141.397 11.105C142.837 10.685 144.337 10.475 145.897 10.475ZM150.622 23.21L147.067 23.345C144.067 23.465 141.982 23.945 140.812 24.785C139.672 25.625 139.102 26.81 139.102 28.34C139.102 29.69 139.507 30.68 140.317 31.31C141.157 31.94 142.222 32.255 143.512 32.255C145.552 32.255 147.247 31.7 148.597 30.59C149.947 29.45 150.622 27.71 150.622 25.37V23.21ZM165.722 10.88V25.595C165.722 25.955 165.707 26.495 165.677 27.215C165.647 27.935 165.602 28.655 165.542 29.375C165.512 30.095 165.482 30.665 165.452 31.085L178.367 10.88H183.227V35H179.537V20.78C179.537 20.3 179.537 19.67 179.537 18.89C179.567 18.11 179.597 17.345 179.627 16.595C179.657 15.815 179.687 15.23 179.717 14.84L166.892 35H161.987V10.88H165.722ZM181.517 0.889999C181.307 3.14 180.542 4.85 179.222 6.02C177.932 7.16 175.862 7.73 173.012 7.73C170.072 7.73 167.987 7.16 166.757 6.02C165.557 4.88 164.882 3.17 164.732 0.889999H168.422C168.572 2.51 168.992 3.605 169.682 4.175C170.402 4.715 171.542 4.985 173.102 4.985C174.482 4.985 175.562 4.7 176.342 4.13C177.152 3.53 177.632 2.45 177.782 0.889999H181.517ZM204.311 10.88V20.915H217.406V10.88H221.366V35H217.406V24.245H204.311V35H200.351V10.88H204.311ZM249.973 22.895C249.973 26.885 248.953 29.975 246.913 32.165C244.903 34.355 242.173 35.45 238.723 35.45C236.593 35.45 234.688 34.97 233.008 34.01C231.358 33.02 230.053 31.595 229.093 29.735C228.133 27.845 227.653 25.565 227.653 22.895C227.653 18.905 228.658 15.83 230.668 13.67C232.678 11.51 235.408 10.43 238.858 10.43C241.048 10.43 242.968 10.925 244.618 11.915C246.298 12.875 247.603 14.285 248.533 16.145C249.493 17.975 249.973 20.225 249.973 22.895ZM231.748 22.895C231.748 25.745 232.303 28.01 233.413 29.69C234.553 31.34 236.353 32.165 238.813 32.165C241.243 32.165 243.028 31.34 244.168 29.69C245.308 28.01 245.878 25.745 245.878 22.895C245.878 20.045 245.308 17.81 244.168 16.19C243.028 14.57 241.228 13.76 238.768 13.76C236.308 13.76 234.523 14.57 233.413 16.19C232.303 17.81 231.748 20.045 231.748 22.895ZM275.644 16.955C275.644 18.455 275.194 19.625 274.294 20.465C273.394 21.305 272.239 21.875 270.829 22.175V22.355C272.329 22.565 273.634 23.105 274.744 23.975C275.854 24.815 276.409 26.135 276.409 27.935C276.409 29.975 275.644 31.67 274.114 33.02C272.614 34.34 270.124 35 266.644 35H256.249V10.88H266.599C268.309 10.88 269.839 11.075 271.189 11.465C272.569 11.825 273.649 12.455 274.429 13.355C275.239 14.225 275.644 15.425 275.644 16.955ZM271.639 17.45C271.639 16.31 271.219 15.485 270.379 14.975C269.569 14.435 268.234 14.165 266.374 14.165H260.209V20.78H265.654C269.644 20.78 271.639 19.67 271.639 17.45ZM272.314 27.935C272.314 26.555 271.789 25.565 270.739 24.965C269.689 24.365 268.144 24.065 266.104 24.065H260.209V31.805H266.194C268.174 31.805 269.689 31.52 270.739 30.95C271.789 30.35 272.314 29.345 272.314 27.935ZM282.177 35V10.88H286.137V20.78H292.392C295.512 20.78 297.822 21.35 299.322 22.49C300.822 23.63 301.572 25.34 301.572 27.62C301.572 29.87 300.837 31.67 299.367 33.02C297.897 34.34 295.512 35 292.212 35H282.177ZM305.577 35V10.88H309.537V35H305.577ZM286.137 31.805H291.852C293.562 31.805 294.957 31.52 296.037 30.95C297.117 30.35 297.657 29.315 297.657 27.845C297.657 26.375 297.162 25.385 296.172 24.875C295.182 24.335 293.757 24.065 291.897 24.065H286.137V31.805ZM326.516 10.43C328.586 10.43 330.356 10.88 331.826 11.78C333.326 12.68 334.466 13.955 335.246 15.605C336.056 17.225 336.461 19.13 336.461 21.32V23.705H319.946C320.006 26.435 320.696 28.52 322.016 29.96C323.366 31.37 325.241 32.075 327.641 32.075C329.171 32.075 330.521 31.94 331.691 31.67C332.891 31.37 334.121 30.95 335.381 30.41V33.875C334.151 34.415 332.936 34.805 331.736 35.045C330.536 35.315 329.111 35.45 327.461 35.45C325.181 35.45 323.156 34.985 321.386 34.055C319.646 33.125 318.281 31.745 317.291 29.915C316.331 28.055 315.851 25.79 315.851 23.12C315.851 20.48 316.286 18.215 317.156 16.325C318.056 14.435 319.301 12.98 320.891 11.96C322.511 10.94 324.386 10.43 326.516 10.43ZM326.471 13.67C324.581 13.67 323.081 14.285 321.971 15.515C320.891 16.715 320.246 18.395 320.036 20.555H332.321C332.291 18.515 331.811 16.865 330.881 15.605C329.951 14.315 328.481 13.67 326.471 13.67ZM87.0871 68.43C90.0571 68.43 92.4421 69.465 94.2421 71.535C96.0721 73.605 96.9871 76.725 96.9871 80.895C96.9871 85.005 96.0721 88.125 94.2421 90.255C92.4421 92.385 90.0421 93.45 87.0421 93.45C85.1821 93.45 83.6371 93.105 82.4071 92.415C81.2071 91.695 80.2621 90.87 79.5721 89.94H79.3021C79.3621 90.45 79.4221 91.095 79.4821 91.875C79.5421 92.655 79.5721 93.33 79.5721 93.9V103.8H75.6121V68.88H78.8521L79.3921 72.165H79.5721C80.2921 71.115 81.2371 70.23 82.4071 69.51C83.5771 68.79 85.1371 68.43 87.0871 68.43ZM86.3671 71.76C83.9071 71.76 82.1671 72.45 81.1471 73.83C80.1571 75.21 79.6321 77.31 79.5721 80.13V80.895C79.5721 83.865 80.0521 86.16 81.0121 87.78C82.0021 89.37 83.8171 90.165 86.4571 90.165C87.9271 90.165 89.1271 89.76 90.0571 88.95C91.0171 88.14 91.7221 87.045 92.1721 85.665C92.6521 84.255 92.8921 82.65 92.8921 80.85C92.8921 78.09 92.3521 75.885 91.2721 74.235C90.2221 72.585 88.5871 71.76 86.3671 71.76ZM112.613 68.43C114.683 68.43 116.453 68.88 117.923 69.78C119.423 70.68 120.563 71.955 121.343 73.605C122.153 75.225 122.558 77.13 122.558 79.32V81.705H106.043C106.103 84.435 106.793 86.52 108.113 87.96C109.463 89.37 111.338 90.075 113.738 90.075C115.268 90.075 116.618 89.94 117.788 89.67C118.988 89.37 120.218 88.95 121.478 88.41V91.875C120.248 92.415 119.033 92.805 117.833 93.045C116.633 93.315 115.208 93.45 113.558 93.45C111.278 93.45 109.253 92.985 107.483 92.055C105.743 91.125 104.378 89.745 103.388 87.915C102.428 86.055 101.948 83.79 101.948 81.12C101.948 78.48 102.383 76.215 103.253 74.325C104.153 72.435 105.398 70.98 106.988 69.96C108.608 68.94 110.483 68.43 112.613 68.43ZM112.568 71.67C110.678 71.67 109.178 72.285 108.068 73.515C106.988 74.715 106.343 76.395 106.133 78.555H118.418C118.388 76.515 117.908 74.865 116.978 73.605C116.048 72.315 114.578 71.67 112.568 71.67ZM152.503 101.37H148.633V93H128.698V68.88H132.658V89.67H145.123V68.88H149.083V89.715H152.503V101.37ZM166.446 68.43C168.516 68.43 170.286 68.88 171.756 69.78C173.256 70.68 174.396 71.955 175.176 73.605C175.986 75.225 176.391 77.13 176.391 79.32V81.705H159.876C159.936 84.435 160.626 86.52 161.946 87.96C163.296 89.37 165.171 90.075 167.571 90.075C169.101 90.075 170.451 89.94 171.621 89.67C172.821 89.37 174.051 88.95 175.311 88.41V91.875C174.081 92.415 172.866 92.805 171.666 93.045C170.466 93.315 169.041 93.45 167.391 93.45C165.111 93.45 163.086 92.985 161.316 92.055C159.576 91.125 158.211 89.745 157.221 87.915C156.261 86.055 155.781 83.79 155.781 81.12C155.781 78.48 156.216 76.215 157.086 74.325C157.986 72.435 159.231 70.98 160.821 69.96C162.441 68.94 164.316 68.43 166.446 68.43ZM166.401 71.67C164.511 71.67 163.011 72.285 161.901 73.515C160.821 74.715 160.176 76.395 159.966 78.555H172.251C172.221 76.515 171.741 74.865 170.811 73.605C169.881 72.315 168.411 71.67 166.401 71.67ZM202.916 68.88V93H198.956V72.255H186.491V93H182.531V68.88H202.916ZM227.262 72.21H219.387V93H215.472V72.21H207.687V68.88H227.262V72.21ZM232.013 93V68.88H235.973V78.78H242.228C245.348 78.78 247.658 79.35 249.158 80.49C250.658 81.63 251.408 83.34 251.408 85.62C251.408 87.87 250.673 89.67 249.203 91.02C247.733 92.34 245.348 93 242.048 93H232.013ZM255.413 93V68.88H259.373V93H255.413ZM235.973 89.805H241.688C243.398 89.805 244.793 89.52 245.873 88.95C246.953 88.35 247.493 87.315 247.493 85.845C247.493 84.375 246.998 83.385 246.008 82.875C245.018 82.335 243.593 82.065 241.733 82.065H235.973V89.805ZM26.8314 126.43C28.9014 126.43 30.6714 126.88 32.1414 127.78C33.6414 128.68 34.7814 129.955 35.5614 131.605C36.3714 133.225 36.7764 135.13 36.7764 137.32V139.705H20.2614C20.3214 142.435 21.0114 144.52 22.3314 145.96C23.6814 147.37 25.5564 148.075 27.9564 148.075C29.4864 148.075 30.8364 147.94 32.0064 147.67C33.2064 147.37 34.4364 146.95 35.6964 146.41V149.875C34.4664 150.415 33.2514 150.805 32.0514 151.045C30.8514 151.315 29.4264 151.45 27.7764 151.45C25.4964 151.45 23.4714 150.985 21.7014 150.055C19.9614 149.125 18.5964 147.745 17.6064 145.915C16.6464 144.055 16.1664 141.79 16.1664 139.12C16.1664 136.48 16.6014 134.215 17.4714 132.325C18.3714 130.435 19.6164 128.98 21.2064 127.96C22.8264 126.94 24.7014 126.43 26.8314 126.43ZM26.7864 129.67C24.8964 129.67 23.3964 130.285 22.2864 131.515C21.2064 132.715 20.5614 134.395 20.3514 136.555H32.6364C32.6064 134.515 32.1264 132.865 31.1964 131.605C30.2664 130.315 28.7964 129.67 26.7864 129.67ZM71.8518 126.88L61.9068 138.58L72.7068 151H68.2068L57.7668 138.76V151H54.0768V138.76L43.6368 151H39.1368L49.9368 138.58L39.9918 126.88H44.3118L54.0768 138.58V126.88H57.7668V138.58L67.5768 126.88H71.8518ZM85.1029 126.43C87.1729 126.43 88.9429 126.88 90.4129 127.78C91.9129 128.68 93.0529 129.955 93.8329 131.605C94.6429 133.225 95.0479 135.13 95.0479 137.32V139.705H78.5329C78.5929 142.435 79.2829 144.52 80.6029 145.96C81.9529 147.37 83.8279 148.075 86.2279 148.075C87.7579 148.075 89.1079 147.94 90.2779 147.67C91.4779 147.37 92.7079 146.95 93.9679 146.41V149.875C92.7379 150.415 91.5229 150.805 90.3229 151.045C89.1229 151.315 87.6979 151.45 86.0479 151.45C83.7679 151.45 81.7429 150.985 79.9729 150.055C78.2329 149.125 76.8679 147.745 75.8779 145.915C74.9179 144.055 74.4379 141.79 74.4379 139.12C74.4379 136.48 74.8729 134.215 75.7429 132.325C76.6429 130.435 77.8879 128.98 79.4779 127.96C81.0979 126.94 82.9729 126.43 85.1029 126.43ZM85.0579 129.67C83.1679 129.67 81.6679 130.285 80.5579 131.515C79.4779 132.715 78.8329 134.395 78.6229 136.555H90.9079C90.8779 134.515 90.3979 132.865 89.4679 131.605C88.5379 130.315 87.0679 129.67 85.0579 129.67ZM105.148 126.88V136.915H118.243V126.88H122.203V151H118.243V140.245H105.148V151H101.188V126.88H105.148ZM139.156 126.43C141.226 126.43 142.996 126.88 144.466 127.78C145.966 128.68 147.106 129.955 147.886 131.605C148.696 133.225 149.101 135.13 149.101 137.32V139.705H132.586C132.646 142.435 133.336 144.52 134.656 145.96C136.006 147.37 137.881 148.075 140.281 148.075C141.811 148.075 143.161 147.94 144.331 147.67C145.531 147.37 146.761 146.95 148.021 146.41V149.875C146.791 150.415 145.576 150.805 144.376 151.045C143.176 151.315 141.751 151.45 140.101 151.45C137.821 151.45 135.796 150.985 134.026 150.055C132.286 149.125 130.921 147.745 129.931 145.915C128.971 144.055 128.491 141.79 128.491 139.12C128.491 136.48 128.926 134.215 129.796 132.325C130.696 130.435 131.941 128.98 133.531 127.96C135.151 126.94 137.026 126.43 139.156 126.43ZM139.111 129.67C137.221 129.67 135.721 130.285 134.611 131.515C133.531 132.715 132.886 134.395 132.676 136.555H144.961C144.931 134.515 144.451 132.865 143.521 131.605C142.591 130.315 141.121 129.67 139.111 129.67ZM173.151 126.88V147.67H176.661V159.37H172.836V151H156.051V159.37H152.271V147.67H154.206C156.276 144.82 157.821 141.58 158.841 137.95C159.891 134.29 160.431 130.6 160.461 126.88H173.151ZM169.326 129.985H163.971C163.851 132.025 163.536 134.14 163.026 136.33C162.516 138.49 161.856 140.56 161.046 142.54C160.266 144.52 159.351 146.23 158.301 147.67H169.326V129.985ZM190.703 126.43C192.773 126.43 194.543 126.88 196.013 127.78C197.513 128.68 198.653 129.955 199.433 131.605C200.243 133.225 200.648 135.13 200.648 137.32V139.705H184.133C184.193 142.435 184.883 144.52 186.203 145.96C187.553 147.37 189.428 148.075 191.828 148.075C193.358 148.075 194.708 147.94 195.878 147.67C197.078 147.37 198.308 146.95 199.568 146.41V149.875C198.338 150.415 197.123 150.805 195.923 151.045C194.723 151.315 193.298 151.45 191.648 151.45C189.368 151.45 187.343 150.985 185.573 150.055C183.833 149.125 182.468 147.745 181.478 145.915C180.518 144.055 180.038 141.79 180.038 139.12C180.038 136.48 180.473 134.215 181.343 132.325C182.243 130.435 183.488 128.98 185.078 127.96C186.698 126.94 188.573 126.43 190.703 126.43ZM190.658 129.67C188.768 129.67 187.268 130.285 186.158 131.515C185.078 132.715 184.433 134.395 184.223 136.555H196.508C196.478 134.515 195.998 132.865 195.068 131.605C194.138 130.315 192.668 129.67 190.658 129.67ZM225.149 151H221.144V130.165H214.034C213.644 135.235 213.104 139.33 212.414 142.45C211.724 145.54 210.809 147.79 209.669 149.2C208.529 150.61 207.089 151.315 205.349 151.315C204.959 151.315 204.569 151.285 204.179 151.225C203.819 151.195 203.519 151.12 203.279 151V148.03C203.459 148.09 203.654 148.135 203.864 148.165C204.074 148.195 204.284 148.21 204.494 148.21C206.114 148.21 207.404 146.485 208.364 143.035C209.354 139.585 210.104 134.2 210.614 126.88H225.149V151ZM236.764 136.78H243.919C250.189 136.78 253.324 139.06 253.324 143.62C253.324 145.87 252.559 147.67 251.029 149.02C249.499 150.34 247.069 151 243.739 151H232.804V126.88H236.764V136.78ZM249.364 143.845C249.364 142.375 248.839 141.385 247.789 140.875C246.769 140.335 245.329 140.065 243.469 140.065H236.764V147.805H243.559C245.239 147.805 246.619 147.505 247.699 146.905C248.809 146.305 249.364 145.285 249.364 143.845ZM263.483 126.88V136.915H276.578V126.88H280.538V151H276.578V140.245H263.483V151H259.523V126.88H263.483ZM309.146 138.895C309.146 142.885 308.126 145.975 306.086 148.165C304.076 150.355 301.346 151.45 297.896 151.45C295.766 151.45 293.861 150.97 292.181 150.01C290.531 149.02 289.226 147.595 288.266 145.735C287.306 143.845 286.826 141.565 286.826 138.895C286.826 134.905 287.831 131.83 289.841 129.67C291.851 127.51 294.581 126.43 298.031 126.43C300.221 126.43 302.141 126.925 303.791 127.915C305.471 128.875 306.776 130.285 307.706 132.145C308.666 133.975 309.146 136.225 309.146 138.895ZM290.921 138.895C290.921 141.745 291.476 144.01 292.586 145.69C293.726 147.34 295.526 148.165 297.986 148.165C300.416 148.165 302.201 147.34 303.341 145.69C304.481 144.01 305.051 141.745 305.051 138.895C305.051 136.045 304.481 133.81 303.341 132.19C302.201 130.57 300.401 129.76 297.941 129.76C295.481 129.76 293.696 130.57 292.586 132.19C291.476 133.81 290.921 136.045 290.921 138.895ZM319.924 119.359C319.47 123.593 319.067 127.724 318.716 131.752C318.379 135.78 318.123 139.794 317.947 143.793H314.519C314.475 139.75 314.336 135.663 314.102 131.532C313.867 127.401 313.516 123.344 313.047 119.359H319.924ZM319.199 148.935C319.199 149.33 319.119 149.704 318.958 150.055C318.811 150.392 318.606 150.692 318.342 150.956C318.093 151.22 317.793 151.425 317.441 151.571C317.09 151.732 316.716 151.813 316.321 151.813C315.911 151.813 315.53 151.732 315.178 151.571C314.827 151.425 314.519 151.22 314.255 150.956C313.992 150.692 313.779 150.392 313.618 150.055C313.472 149.704 313.398 149.33 313.398 148.935C313.398 148.524 313.472 148.144 313.618 147.792C313.779 147.44 313.992 147.133 314.255 146.869C314.519 146.605 314.827 146.4 315.178 146.254C315.53 146.093 315.911 146.012 316.321 146.012C316.716 146.012 317.09 146.093 317.441 146.254C317.793 146.4 318.093 146.605 318.342 146.869C318.606 147.133 318.811 147.44 318.958 147.792C319.119 148.144 319.199 148.524 319.199 148.935Z" fill="black"/>
</svg>
