<svg width="322" height="73" viewBox="0 0 322 73" fill="none" xmlns="http://www.w3.org/2000/svg">
<path d="M9.86352 5.28V16H8.10352V6.78H2.56352V16H0.803516V5.28H9.86352ZM18.384 5.08C19.704 5.08 20.764 5.54 21.564 6.46C22.3773 7.38 22.784 8.76667 22.784 10.62C22.784 12.4467 22.3773 13.8333 21.564 14.78C20.764 15.7267 19.6973 16.2 18.364 16.2C17.5373 16.2 16.8507 16.0467 16.304 15.74C15.7707 15.42 15.3507 15.0533 15.044 14.64H14.924C14.9507 14.8667 14.9773 15.1533 15.004 15.5C15.0307 15.8467 15.044 16.1467 15.044 16.4V20.8H13.284V5.28H14.724L14.964 6.74H15.044C15.364 6.27333 15.784 5.88 16.304 5.56C16.824 5.24 17.5173 5.08 18.384 5.08ZM18.064 6.56C16.9707 6.56 16.1973 6.86667 15.744 7.48C15.304 8.09333 15.0707 9.02667 15.044 10.28V10.62C15.044 11.94 15.2573 12.96 15.684 13.68C16.124 14.3867 16.9307 14.74 18.104 14.74C18.7573 14.74 19.2907 14.56 19.704 14.2C20.1307 13.84 20.444 13.3533 20.644 12.74C20.8573 12.1133 20.964 11.4 20.964 10.6C20.964 9.37333 20.724 8.39333 20.244 7.66C19.7773 6.92667 19.0507 6.56 18.064 6.56ZM34.9087 10.62C34.9087 12.3933 34.4553 13.7667 33.5487 14.74C32.6553 15.7133 31.442 16.2 29.9087 16.2C28.962 16.2 28.1153 15.9867 27.3687 15.56C26.6353 15.12 26.0553 14.4867 25.6287 13.66C25.202 12.82 24.9887 11.8067 24.9887 10.62C24.9887 8.84667 25.4353 7.48 26.3287 6.52C27.222 5.56 28.4353 5.08 29.9687 5.08C30.942 5.08 31.7953 5.3 32.5287 5.74C33.2753 6.16667 33.8553 6.79333 34.2687 7.62C34.6953 8.43333 34.9087 9.43333 34.9087 10.62ZM26.8087 10.62C26.8087 11.8867 27.0553 12.8933 27.5487 13.64C28.0553 14.3733 28.8553 14.74 29.9487 14.74C31.0287 14.74 31.822 14.3733 32.3287 13.64C32.8353 12.8933 33.0887 11.8867 33.0887 10.62C33.0887 9.35333 32.8353 8.36 32.3287 7.64C31.822 6.92 31.022 6.56 29.9287 6.56C28.8353 6.56 28.042 6.92 27.5487 7.64C27.0553 8.36 26.8087 9.35333 26.8087 10.62ZM41.998 16.2C41.0514 16.2 40.2047 16.0067 39.458 15.62C38.7247 15.2333 38.1447 14.6333 37.718 13.82C37.3047 13.0067 37.098 11.9667 37.098 10.7C37.098 9.38 37.318 8.30667 37.758 7.48C38.198 6.65333 38.7914 6.04667 39.538 5.66C40.298 5.27333 41.158 5.08 42.118 5.08C42.6647 5.08 43.1914 5.14 43.698 5.26C44.2047 5.36667 44.618 5.5 44.938 5.66L44.398 7.12C44.078 7 43.7047 6.88667 43.278 6.78C42.8514 6.67333 42.4514 6.62 42.078 6.62C39.9714 6.62 38.918 7.97333 38.918 10.68C38.918 11.9733 39.1714 12.9667 39.678 13.66C40.198 14.34 40.9647 14.68 41.978 14.68C42.5647 14.68 43.078 14.62 43.518 14.5C43.9714 14.38 44.3847 14.2333 44.758 14.06V15.62C44.398 15.8067 43.998 15.9467 43.558 16.04C43.1314 16.1467 42.6114 16.2 41.998 16.2ZM54.7074 6.76H51.2074V16H49.4674V6.76H46.0074V5.28H54.7074V6.76ZM65.9438 10.62C65.9438 12.3933 65.4905 13.7667 64.5838 14.74C63.6905 15.7133 62.4772 16.2 60.9438 16.2C59.9972 16.2 59.1505 15.9867 58.4038 15.56C57.6705 15.12 57.0905 14.4867 56.6638 13.66C56.2372 12.82 56.0238 11.8067 56.0238 10.62C56.0238 8.84667 56.4705 7.48 57.3638 6.52C58.2572 5.56 59.4705 5.08 61.0038 5.08C61.9772 5.08 62.8305 5.3 63.5638 5.74C64.3105 6.16667 64.8905 6.79333 65.3038 7.62C65.7305 8.43333 65.9438 9.43333 65.9438 10.62ZM57.8438 10.62C57.8438 11.8867 58.0905 12.8933 58.5838 13.64C59.0905 14.3733 59.8905 14.74 60.9838 14.74C62.0638 14.74 62.8572 14.3733 63.3638 13.64C63.8705 12.8933 64.1238 11.8867 64.1238 10.62C64.1238 9.35333 63.8705 8.36 63.3638 7.64C62.8572 6.92 62.0572 6.56 60.9638 6.56C59.8705 6.56 59.0772 6.92 58.5838 7.64C58.0905 8.36 57.8438 9.35333 57.8438 10.62ZM77.4132 0.84C77.3199 1.84 76.9799 2.6 76.3932 3.12C75.8199 3.62667 74.8999 3.88 73.6332 3.88C72.3265 3.88 71.3999 3.62667 70.8532 3.12C70.3199 2.61333 70.0199 1.85333 69.9532 0.84H71.5932C71.6599 1.56 71.8465 2.04667 72.1532 2.3C72.4732 2.54 72.9799 2.66 73.6732 2.66C74.2865 2.66 74.7665 2.53333 75.1132 2.28C75.4732 2.01333 75.6865 1.53333 75.7532 0.84H77.4132ZM70.3932 11.82C70.3932 11.98 70.3865 12.22 70.3732 12.54C70.3599 12.86 70.3399 13.18 70.3132 13.5C70.2999 13.82 70.2865 14.0733 70.2732 14.26L76.0132 5.28H78.1732V16H76.5332V9.68C76.5332 9.46667 76.5332 9.18667 76.5332 8.84C76.5465 8.49333 76.5599 8.15333 76.5732 7.82C76.5865 7.47333 76.5999 7.21333 76.6132 7.04L70.9132 16H68.7332V5.28H70.3932V11.82ZM87.444 11.82C87.444 11.98 87.4373 12.22 87.424 12.54C87.4107 12.86 87.3907 13.18 87.364 13.5C87.3507 13.82 87.3373 14.0733 87.324 14.26L93.064 5.28H95.224V16H93.584V9.68C93.584 9.46667 93.584 9.18667 93.584 8.84C93.5973 8.49333 93.6107 8.15333 93.624 7.82C93.6373 7.47333 93.6507 7.21333 93.664 7.04L87.964 16H85.784V5.28H87.444V11.82ZM111.455 7.98C111.455 8.64667 111.255 9.16667 110.855 9.54C110.455 9.91333 109.941 10.1667 109.315 10.3V10.38C109.981 10.4733 110.561 10.7133 111.055 11.1C111.548 11.4733 111.795 12.06 111.795 12.86C111.795 13.7667 111.455 14.52 110.775 15.12C110.108 15.7067 109.001 16 107.455 16H102.835V5.28H107.435C108.195 5.28 108.875 5.36667 109.475 5.54C110.088 5.7 110.568 5.98 110.915 6.38C111.275 6.76667 111.455 7.3 111.455 7.98ZM109.675 8.2C109.675 7.69333 109.488 7.32667 109.115 7.1C108.755 6.86 108.161 6.74 107.335 6.74H104.595V9.68H107.015C108.788 9.68 109.675 9.18667 109.675 8.2ZM109.975 12.86C109.975 12.2467 109.741 11.8067 109.275 11.54C108.808 11.2733 108.121 11.14 107.215 11.14H104.595V14.58H107.255C108.135 14.58 108.808 14.4533 109.275 14.2C109.741 13.9333 109.975 13.4867 109.975 12.86ZM120.698 5.28H122.618L118.038 10.44L122.998 16H120.958L116.118 10.56V16H114.358V5.28H116.118V10.48L120.698 5.28ZM123.264 5.28H125.144L127.464 11.38C127.664 11.9133 127.844 12.4267 128.004 12.92C128.164 13.4 128.284 13.86 128.364 14.3H128.444C128.524 13.9667 128.651 13.5333 128.824 13C128.997 12.4533 129.177 11.9067 129.364 11.36L131.544 5.28H133.444L128.824 17.48C128.451 18.4933 127.964 19.3 127.364 19.9C126.777 20.5 125.964 20.8 124.924 20.8C124.604 20.8 124.324 20.78 124.084 20.74C123.844 20.7133 123.637 20.68 123.464 20.64V19.24C123.611 19.2667 123.784 19.2933 123.984 19.32C124.197 19.3467 124.417 19.36 124.644 19.36C125.257 19.36 125.751 19.1867 126.124 18.84C126.511 18.4933 126.811 18.0333 127.024 17.46L127.584 16.04L123.264 5.28ZM139.439 16.2C138.493 16.2 137.646 16.0067 136.899 15.62C136.166 15.2333 135.586 14.6333 135.159 13.82C134.746 13.0067 134.539 11.9667 134.539 10.7C134.539 9.38 134.759 8.30667 135.199 7.48C135.639 6.65333 136.233 6.04667 136.979 5.66C137.739 5.27333 138.599 5.08 139.559 5.08C140.106 5.08 140.633 5.14 141.139 5.26C141.646 5.36667 142.059 5.5 142.379 5.66L141.839 7.12C141.519 7 141.146 6.88667 140.719 6.78C140.293 6.67333 139.893 6.62 139.519 6.62C137.413 6.62 136.359 7.97333 136.359 10.68C136.359 11.9733 136.613 12.9667 137.119 13.66C137.639 14.34 138.406 14.68 139.419 14.68C140.006 14.68 140.519 14.62 140.959 14.5C141.413 14.38 141.826 14.2333 142.199 14.06V15.62C141.839 15.8067 141.439 15.9467 140.999 16.04C140.573 16.1467 140.053 16.2 139.439 16.2ZM146.509 5.28V9.74H152.329V5.28H154.089V16H152.329V11.22H146.509V16H144.749V5.28H146.509ZM157.483 16V5.28H159.243V9.68H162.023C163.41 9.68 164.437 9.93333 165.103 10.44C165.77 10.9467 166.103 11.7067 166.103 12.72C166.103 13.72 165.777 14.52 165.123 15.12C164.47 15.7067 163.41 16 161.943 16H157.483ZM167.883 16V5.28H169.643V16H167.883ZM161.783 14.58C162.543 14.58 163.163 14.4533 163.643 14.2C164.123 13.9333 164.363 13.4733 164.363 12.82C164.363 12.1667 164.143 11.7267 163.703 11.5C163.263 11.26 162.63 11.14 161.803 11.14H159.243V14.58H161.783ZM181.73 0.84C181.636 1.84 181.296 2.6 180.71 3.12C180.136 3.62667 179.216 3.88 177.95 3.88C176.643 3.88 175.716 3.62667 175.17 3.12C174.636 2.61333 174.336 1.85333 174.27 0.84H175.91C175.976 1.56 176.163 2.04667 176.47 2.3C176.79 2.54 177.296 2.66 177.99 2.66C178.603 2.66 179.083 2.53333 179.43 2.28C179.79 2.01333 180.003 1.53333 180.07 0.84H181.73ZM174.71 11.82C174.71 11.98 174.703 12.22 174.69 12.54C174.676 12.86 174.656 13.18 174.63 13.5C174.616 13.82 174.603 14.0733 174.59 14.26L180.33 5.28H182.49V16H180.85V9.68C180.85 9.46667 180.85 9.18667 180.85 8.84C180.863 8.49333 180.876 8.15333 180.89 7.82C180.903 7.47333 180.916 7.21333 180.93 7.04L175.23 16H173.05V5.28H174.71V11.82ZM198.06 5.28V14.52H199.62V19.72H197.92V16H190.46V19.72H188.78V14.52H189.64C190.56 13.2533 191.247 11.8133 191.7 10.2C192.167 8.57333 192.407 6.93333 192.42 5.28H198.06ZM193.98 6.66C193.927 7.56667 193.787 8.50667 193.56 9.48C193.334 10.44 193.04 11.36 192.68 12.24C192.334 13.12 191.927 13.88 191.46 14.52H196.36V6.66H193.98ZM205.861 5.08C206.781 5.08 207.568 5.28 208.221 5.68C208.888 6.08 209.395 6.64667 209.741 7.38C210.101 8.1 210.281 8.94667 210.281 9.92V10.98H202.941C202.968 12.1933 203.275 13.12 203.861 13.76C204.461 14.3867 205.295 14.7 206.361 14.7C207.041 14.7 207.641 14.64 208.161 14.52C208.695 14.3867 209.241 14.2 209.801 13.96V15.5C209.255 15.74 208.715 15.9133 208.181 16.02C207.648 16.14 207.015 16.2 206.281 16.2C205.268 16.2 204.368 15.9933 203.581 15.58C202.808 15.1667 202.201 14.5533 201.761 13.74C201.335 12.9133 201.121 11.9067 201.121 10.72C201.121 9.54667 201.315 8.54 201.701 7.7C202.101 6.86 202.655 6.21333 203.361 5.76C204.081 5.30667 204.915 5.08 205.861 5.08ZM205.841 6.52C205.001 6.52 204.335 6.79333 203.841 7.34C203.361 7.87333 203.075 8.62 202.981 9.58H208.441C208.428 8.67333 208.215 7.94 207.801 7.38C207.388 6.80667 206.735 6.52 205.841 6.52ZM217.311 16.2C216.364 16.2 215.517 16.0067 214.771 15.62C214.037 15.2333 213.457 14.6333 213.031 13.82C212.617 13.0067 212.411 11.9667 212.411 10.7C212.411 9.38 212.631 8.30667 213.071 7.48C213.511 6.65333 214.104 6.04667 214.851 5.66C215.611 5.27333 216.471 5.08 217.431 5.08C217.977 5.08 218.504 5.14 219.011 5.26C219.517 5.36667 219.931 5.5 220.251 5.66L219.711 7.12C219.391 7 219.017 6.88667 218.591 6.78C218.164 6.67333 217.764 6.62 217.391 6.62C215.284 6.62 214.231 7.97333 214.231 10.68C214.231 11.9733 214.484 12.9667 214.991 13.66C215.511 14.34 216.277 14.68 217.291 14.68C217.877 14.68 218.391 14.62 218.831 14.5C219.284 14.38 219.697 14.2333 220.071 14.06V15.62C219.711 15.8067 219.311 15.9467 218.871 16.04C218.444 16.1467 217.924 16.2 217.311 16.2ZM226.76 5.08C227.68 5.08 228.467 5.28 229.12 5.68C229.787 6.08 230.293 6.64667 230.64 7.38C231 8.1 231.18 8.94667 231.18 9.92V10.98H223.84C223.867 12.1933 224.173 13.12 224.76 13.76C225.36 14.3867 226.193 14.7 227.26 14.7C227.94 14.7 228.54 14.64 229.06 14.52C229.593 14.3867 230.14 14.2 230.7 13.96V15.5C230.153 15.74 229.613 15.9133 229.08 16.02C228.547 16.14 227.913 16.2 227.18 16.2C226.167 16.2 225.267 15.9933 224.48 15.58C223.707 15.1667 223.1 14.5533 222.66 13.74C222.233 12.9133 222.02 11.9067 222.02 10.72C222.02 9.54667 222.213 8.54 222.6 7.7C223 6.86 223.553 6.21333 224.26 5.76C224.98 5.30667 225.813 5.08 226.76 5.08ZM226.74 6.52C225.9 6.52 225.233 6.79333 224.74 7.34C224.26 7.87333 223.973 8.62 223.88 9.58H229.34C229.327 8.67333 229.113 7.94 228.7 7.38C228.287 6.80667 227.633 6.52 226.74 6.52ZM239.009 5.08C240.329 5.08 241.389 5.54 242.189 6.46C243.002 7.38 243.409 8.76667 243.409 10.62C243.409 12.4467 243.002 13.8333 242.189 14.78C241.389 15.7267 240.322 16.2 238.989 16.2C238.162 16.2 237.476 16.0467 236.929 15.74C236.396 15.42 235.976 15.0533 235.669 14.64H235.549C235.576 14.8667 235.602 15.1533 235.629 15.5C235.656 15.8467 235.669 16.1467 235.669 16.4V20.8H233.909V5.28H235.349L235.589 6.74H235.669C235.989 6.27333 236.409 5.88 236.929 5.56C237.449 5.24 238.142 5.08 239.009 5.08ZM238.689 6.56C237.596 6.56 236.822 6.86667 236.369 7.48C235.929 8.09333 235.696 9.02667 235.669 10.28V10.62C235.669 11.94 235.882 12.96 236.309 13.68C236.749 14.3867 237.556 14.74 238.729 14.74C239.382 14.74 239.916 14.56 240.329 14.2C240.756 13.84 241.069 13.3533 241.269 12.74C241.482 12.1133 241.589 11.4 241.589 10.6C241.589 9.37333 241.349 8.39333 240.869 7.66C240.402 6.92667 239.676 6.56 238.689 6.56ZM253.418 6.76H249.918V16H248.178V6.76H244.718V5.28H253.418V6.76ZM264.029 16.2C263.083 16.2 262.236 16.0067 261.489 15.62C260.756 15.2333 260.176 14.6333 259.749 13.82C259.336 13.0067 259.129 11.9667 259.129 10.7C259.129 9.38 259.349 8.30667 259.789 7.48C260.229 6.65333 260.823 6.04667 261.569 5.66C262.329 5.27333 263.189 5.08 264.149 5.08C264.696 5.08 265.223 5.14 265.729 5.26C266.236 5.36667 266.649 5.5 266.969 5.66L266.429 7.12C266.109 7 265.736 6.88667 265.309 6.78C264.883 6.67333 264.483 6.62 264.109 6.62C262.003 6.62 260.949 7.97333 260.949 10.68C260.949 11.9733 261.203 12.9667 261.709 13.66C262.229 14.34 262.996 14.68 264.009 14.68C264.596 14.68 265.109 14.62 265.549 14.5C266.003 14.38 266.416 14.2333 266.789 14.06V15.62C266.429 15.8067 266.029 15.9467 265.589 16.04C265.163 16.1467 264.643 16.2 264.029 16.2ZM276.739 6.76H273.239V16H271.499V6.76H268.039V5.28H276.739V6.76ZM282.91 5.1C284.217 5.1 285.184 5.38667 285.81 5.96C286.437 6.53333 286.75 7.44667 286.75 8.7V16H285.47L285.13 14.48H285.05C284.584 15.0667 284.09 15.5 283.57 15.78C283.064 16.06 282.357 16.2 281.45 16.2C280.477 16.2 279.67 15.9467 279.03 15.44C278.39 14.92 278.07 14.1133 278.07 13.02C278.07 11.9533 278.49 11.1333 279.33 10.56C280.17 9.97333 281.464 9.65333 283.21 9.6L285.03 9.54V8.9C285.03 8.00667 284.837 7.38667 284.45 7.04C284.064 6.69333 283.517 6.52 282.81 6.52C282.25 6.52 281.717 6.60667 281.21 6.78C280.704 6.94 280.23 7.12667 279.79 7.34L279.25 6.02C279.717 5.76667 280.27 5.55333 280.91 5.38C281.55 5.19333 282.217 5.1 282.91 5.1ZM283.43 10.82C282.097 10.8733 281.17 11.0867 280.65 11.46C280.144 11.8333 279.89 12.36 279.89 13.04C279.89 13.64 280.07 14.08 280.43 14.36C280.804 14.64 281.277 14.78 281.85 14.78C282.757 14.78 283.51 14.5333 284.11 14.04C284.71 13.5333 285.01 12.76 285.01 11.72V10.76L283.43 10.82ZM291.821 5.28V9.74H297.641V5.28H299.401V16H297.641V11.22H291.821V16H290.061V5.28H291.821ZM306.936 5.08C307.856 5.08 308.642 5.28 309.296 5.68C309.962 6.08 310.469 6.64667 310.816 7.38C311.176 8.1 311.356 8.94667 311.356 9.92V10.98H304.016C304.042 12.1933 304.349 13.12 304.936 13.76C305.536 14.3867 306.369 14.7 307.436 14.7C308.116 14.7 308.716 14.64 309.236 14.52C309.769 14.3867 310.316 14.2 310.876 13.96V15.5C310.329 15.74 309.789 15.9133 309.256 16.02C308.722 16.14 308.089 16.2 307.356 16.2C306.342 16.2 305.442 15.9933 304.656 15.58C303.882 15.1667 303.276 14.5533 302.836 13.74C302.409 12.9133 302.196 11.9067 302.196 10.72C302.196 9.54667 302.389 8.54 302.776 7.7C303.176 6.86 303.729 6.21333 304.436 5.76C305.156 5.30667 305.989 5.08 306.936 5.08ZM306.916 6.52C306.076 6.52 305.409 6.79333 304.916 7.34C304.436 7.87333 304.149 8.62 304.056 9.58H309.516C309.502 8.67333 309.289 7.94 308.876 7.38C308.462 6.80667 307.809 6.52 306.916 6.52ZM321.485 6.76H317.985V16H316.245V6.76H312.785V5.28H321.485V6.76ZM43.8149 36.62C43.8149 38.3933 43.3616 39.7667 42.4549 40.74C41.5616 41.7133 40.3483 42.2 38.8149 42.2C37.8683 42.2 37.0216 41.9867 36.2749 41.56C35.5416 41.12 34.9616 40.4867 34.5349 39.66C34.1083 38.82 33.8949 37.8067 33.8949 36.62C33.8949 34.8467 34.3416 33.48 35.2349 32.52C36.1283 31.56 37.3416 31.08 38.8749 31.08C39.8483 31.08 40.7016 31.3 41.4349 31.74C42.1816 32.1667 42.7616 32.7933 43.1749 33.62C43.6016 34.4333 43.8149 35.4333 43.8149 36.62ZM35.7149 36.62C35.7149 37.8867 35.9616 38.8933 36.4549 39.64C36.9616 40.3733 37.7616 40.74 38.8549 40.74C39.9349 40.74 40.7283 40.3733 41.2349 39.64C41.7416 38.8933 41.9949 37.8867 41.9949 36.62C41.9949 35.3533 41.7416 34.36 41.2349 33.64C40.7283 32.92 39.9283 32.56 38.8349 32.56C37.7416 32.56 36.9483 32.92 36.4549 33.64C35.9616 34.36 35.7149 35.3533 35.7149 36.62ZM53.809 32.76H50.309V42H48.569V32.76H45.109V31.28H53.809V32.76ZM63.4752 42H61.6952V32.74H58.5352C58.3619 34.9933 58.1219 36.8133 57.8152 38.2C57.5086 39.5733 57.1019 40.5733 56.5952 41.2C56.0886 41.8267 55.4486 42.14 54.6752 42.14C54.5019 42.14 54.3286 42.1267 54.1552 42.1C53.9952 42.0867 53.8619 42.0533 53.7552 42V40.68C53.8352 40.7067 53.9219 40.7267 54.0152 40.74C54.1086 40.7533 54.2019 40.76 54.2952 40.76C55.0152 40.76 55.5886 39.9933 56.0152 38.46C56.4552 36.9267 56.7886 34.5333 57.0152 31.28H63.4752V42ZM68.5377 37.82C68.5377 37.98 68.5311 38.22 68.5177 38.54C68.5044 38.86 68.4844 39.18 68.4577 39.5C68.4444 39.82 68.4311 40.0733 68.4177 40.26L74.1577 31.28H76.3177V42H74.6777V35.68C74.6777 35.4667 74.6777 35.1867 74.6777 34.84C74.6911 34.4933 74.7044 34.1533 74.7177 33.82C74.7311 33.4733 74.7444 33.2133 74.7577 33.04L69.0577 42H66.8777V31.28H68.5377V37.82ZM81.2693 35.18C81.2693 36.4067 81.956 37.02 83.3293 37.02C83.996 37.02 84.6026 36.92 85.1493 36.72C85.696 36.5067 86.256 36.2267 86.8293 35.88V31.28H88.5893V42H86.8293V37.22C86.2293 37.6067 85.636 37.9133 85.0493 38.14C84.476 38.3533 83.7826 38.46 82.9693 38.46C81.876 38.46 81.0226 38.1733 80.4093 37.6C79.8093 37.0267 79.5093 36.26 79.5093 35.3V31.28H81.2693V35.18ZM93.7549 31.28V35.74H99.5749V31.28H101.335V42H99.5749V37.22H93.7549V42H91.9949V31.28H93.7549ZM104.729 42V31.28H106.489V35.68H109.269C110.656 35.68 111.683 35.9333 112.349 36.44C113.016 36.9467 113.349 37.7067 113.349 38.72C113.349 39.72 113.023 40.52 112.369 41.12C111.716 41.7067 110.656 42 109.189 42H104.729ZM115.129 42V31.28H116.889V42H115.129ZM109.029 40.58C109.789 40.58 110.409 40.4533 110.889 40.2C111.369 39.9333 111.609 39.4733 111.609 38.82C111.609 38.1667 111.389 37.7267 110.949 37.5C110.509 37.26 109.876 37.14 109.049 37.14H106.489V40.58H109.029ZM131.796 31.28V42H130.216V35.16C130.216 34.88 130.222 34.5867 130.236 34.28C130.262 33.9733 130.289 33.6733 130.316 33.38H130.256L126.756 42H125.276L121.876 33.38H121.816C121.856 33.98 121.876 34.5933 121.876 35.22V42H120.296V31.28H122.636L126.016 39.9L129.456 31.28H131.796ZM147.377 31.28V40.52H148.937V45.72H147.237V42H139.777V45.72H138.097V40.52H138.957C139.877 39.2533 140.563 37.8133 141.017 36.2C141.483 34.5733 141.723 32.9333 141.737 31.28H147.377ZM143.297 32.66C143.243 33.5667 143.103 34.5067 142.877 35.48C142.65 36.44 142.357 37.36 141.997 38.24C141.65 39.12 141.243 39.88 140.777 40.52H145.677V32.66H143.297ZM160.358 36.62C160.358 38.3933 159.905 39.7667 158.998 40.74C158.105 41.7133 156.891 42.2 155.358 42.2C154.411 42.2 153.565 41.9867 152.818 41.56C152.085 41.12 151.505 40.4867 151.078 39.66C150.651 38.82 150.438 37.8067 150.438 36.62C150.438 34.8467 150.885 33.48 151.778 32.52C152.671 31.56 153.885 31.08 155.418 31.08C156.391 31.08 157.245 31.3 157.978 31.74C158.725 32.1667 159.305 32.7933 159.718 33.62C160.145 34.4333 160.358 35.4333 160.358 36.62ZM152.258 36.62C152.258 37.8867 152.505 38.8933 152.998 39.64C153.505 40.3733 154.305 40.74 155.398 40.74C156.478 40.74 157.271 40.3733 157.778 39.64C158.285 38.8933 158.538 37.8867 158.538 36.62C158.538 35.3533 158.285 34.36 157.778 33.64C157.271 32.92 156.471 32.56 155.378 32.56C154.285 32.56 153.491 32.92 152.998 33.64C152.505 34.36 152.258 35.3533 152.258 36.62ZM172.207 31.28V42H170.447V32.78H164.907V42H163.147V31.28H172.207ZM184.948 36.62C184.948 38.3933 184.494 39.7667 183.588 40.74C182.694 41.7133 181.481 42.2 179.948 42.2C179.001 42.2 178.154 41.9867 177.408 41.56C176.674 41.12 176.094 40.4867 175.668 39.66C175.241 38.82 175.028 37.8067 175.028 36.62C175.028 34.8467 175.474 33.48 176.368 32.52C177.261 31.56 178.474 31.08 180.008 31.08C180.981 31.08 181.834 31.3 182.568 31.74C183.314 32.1667 183.894 32.7933 184.308 33.62C184.734 34.4333 184.948 35.4333 184.948 36.62ZM176.848 36.62C176.848 37.8867 177.094 38.8933 177.588 39.64C178.094 40.3733 178.894 40.74 179.988 40.74C181.068 40.74 181.861 40.3733 182.368 39.64C182.874 38.8933 183.128 37.8867 183.128 36.62C183.128 35.3533 182.874 34.36 182.368 33.64C181.861 32.92 181.061 32.56 179.968 32.56C178.874 32.56 178.081 32.92 177.588 33.64C177.094 34.36 176.848 35.3533 176.848 36.62ZM195.897 42H194.117V32.74H190.957C190.784 34.9933 190.544 36.8133 190.237 38.2C189.93 39.5733 189.524 40.5733 189.017 41.2C188.51 41.8267 187.87 42.14 187.097 42.14C186.924 42.14 186.75 42.1267 186.577 42.1C186.417 42.0867 186.284 42.0533 186.177 42V40.68C186.257 40.7067 186.344 40.7267 186.437 40.74C186.53 40.7533 186.624 40.76 186.717 40.76C187.437 40.76 188.01 39.9933 188.437 38.46C188.877 36.9267 189.21 34.5333 189.437 31.28H195.897V42ZM201.06 31.28V35.74H206.88V31.28H208.64V42H206.88V37.22H201.06V42H199.3V31.28H201.06ZM216.174 31.08C217.094 31.08 217.881 31.28 218.534 31.68C219.201 32.08 219.707 32.6467 220.054 33.38C220.414 34.1 220.594 34.9467 220.594 35.92V36.98H213.254C213.281 38.1933 213.587 39.12 214.174 39.76C214.774 40.3867 215.607 40.7 216.674 40.7C217.354 40.7 217.954 40.64 218.474 40.52C219.007 40.3867 219.554 40.2 220.114 39.96V41.5C219.567 41.74 219.027 41.9133 218.494 42.02C217.961 42.14 217.327 42.2 216.594 42.2C215.581 42.2 214.681 41.9933 213.894 41.58C213.121 41.1667 212.514 40.5533 212.074 39.74C211.647 38.9133 211.434 37.9067 211.434 36.72C211.434 35.5467 211.627 34.54 212.014 33.7C212.414 32.86 212.967 32.2133 213.674 31.76C214.394 31.3067 215.227 31.08 216.174 31.08ZM216.154 32.52C215.314 32.52 214.647 32.7933 214.154 33.34C213.674 33.8733 213.387 34.62 213.294 35.58H218.754C218.741 34.6733 218.527 33.94 218.114 33.38C217.701 32.8067 217.047 32.52 216.154 32.52ZM225.083 31.28V35.74H230.903V31.28H232.663V42H230.903V37.22H225.083V42H223.323V31.28H225.083ZM237.717 37.82C237.717 37.98 237.711 38.22 237.697 38.54C237.684 38.86 237.664 39.18 237.637 39.5C237.624 39.82 237.611 40.0733 237.597 40.26L243.337 31.28H245.497V42H243.857V35.68C243.857 35.4667 243.857 35.1867 243.857 34.84C243.871 34.4933 243.884 34.1533 243.897 33.82C243.911 33.4733 243.924 33.2133 243.937 33.04L238.237 42H236.057V31.28H237.717V37.82ZM253.049 31.08C253.969 31.08 254.756 31.28 255.409 31.68C256.076 32.08 256.582 32.6467 256.929 33.38C257.289 34.1 257.469 34.9467 257.469 35.92V36.98H250.129C250.156 38.1933 250.462 39.12 251.049 39.76C251.649 40.3867 252.482 40.7 253.549 40.7C254.229 40.7 254.829 40.64 255.349 40.52C255.882 40.3867 256.429 40.2 256.989 39.96V41.5C256.442 41.74 255.902 41.9133 255.369 42.02C254.836 42.14 254.202 42.2 253.469 42.2C252.456 42.2 251.556 41.9933 250.769 41.58C249.996 41.1667 249.389 40.5533 248.949 39.74C248.522 38.9133 248.309 37.9067 248.309 36.72C248.309 35.5467 248.502 34.54 248.889 33.7C249.289 32.86 249.842 32.2133 250.549 31.76C251.269 31.3067 252.102 31.08 253.049 31.08ZM253.029 32.52C252.189 32.52 251.522 32.7933 251.029 33.34C250.549 33.8733 250.262 34.62 250.169 35.58H255.629C255.616 34.6733 255.402 33.94 254.989 33.38C254.576 32.8067 253.922 32.52 253.029 32.52ZM271.698 31.28V42H270.118V35.16C270.118 34.88 270.125 34.5867 270.138 34.28C270.165 33.9733 270.191 33.6733 270.218 33.38H270.158L266.658 42H265.178L261.778 33.38H261.718C261.758 33.98 261.778 34.5933 261.778 35.22V42H260.198V31.28H262.538L265.918 39.9L269.358 31.28H271.698ZM285.659 31.28H287.579L282.999 36.44L287.959 42H285.919L281.079 36.56V42H279.319V31.28H281.079V36.48L285.659 31.28ZM71.8747 59.98C71.8747 60.6467 71.6747 61.1667 71.2747 61.54C70.8747 61.9133 70.3614 62.1667 69.7347 62.3V62.38C70.4014 62.4733 70.9814 62.7133 71.4747 63.1C71.968 63.4733 72.2147 64.06 72.2147 64.86C72.2147 65.7667 71.8747 66.52 71.1947 67.12C70.528 67.7067 69.4214 68 67.8747 68H63.2547V57.28H67.8547C68.6147 57.28 69.2947 57.3667 69.8947 57.54C70.508 57.7 70.988 57.98 71.3347 58.38C71.6947 58.7667 71.8747 59.3 71.8747 59.98ZM70.0947 60.2C70.0947 59.6933 69.908 59.3267 69.5347 59.1C69.1747 58.86 68.5814 58.74 67.7547 58.74H65.0147V61.68H67.4347C69.208 61.68 70.0947 61.1867 70.0947 60.2ZM70.3947 64.86C70.3947 64.2467 70.1614 63.8067 69.6947 63.54C69.228 63.2733 68.5414 63.14 67.6347 63.14H65.0147V66.58H67.6747C68.5547 66.58 69.228 66.4533 69.6947 66.2C70.1614 65.9333 70.3947 65.4867 70.3947 64.86ZM84.0981 62.62C84.0981 64.3933 83.6448 65.7667 82.7381 66.74C81.8448 67.7133 80.6315 68.2 79.0981 68.2C78.1515 68.2 77.3048 67.9867 76.5581 67.56C75.8248 67.12 75.2448 66.4867 74.8181 65.66C74.3915 64.82 74.1781 63.8067 74.1781 62.62C74.1781 60.8467 74.6248 59.48 75.5181 58.52C76.4115 57.56 77.6248 57.08 79.1581 57.08C80.1315 57.08 80.9848 57.3 81.7181 57.74C82.4648 58.1667 83.0448 58.7933 83.4581 59.62C83.8848 60.4333 84.0981 61.4333 84.0981 62.62ZM75.9981 62.62C75.9981 63.8867 76.2448 64.8933 76.7381 65.64C77.2448 66.3733 78.0448 66.74 79.1381 66.74C80.2181 66.74 81.0115 66.3733 81.5181 65.64C82.0248 64.8933 82.2781 63.8867 82.2781 62.62C82.2781 61.3533 82.0248 60.36 81.5181 59.64C81.0115 58.92 80.2115 58.56 79.1181 58.56C78.0248 58.56 77.2315 58.92 76.7381 59.64C76.2448 60.36 75.9981 61.3533 75.9981 62.62ZM91.1875 68.2C90.2408 68.2 89.3942 68.0067 88.6475 67.62C87.9142 67.2333 87.3342 66.6333 86.9075 65.82C86.4942 65.0067 86.2875 63.9667 86.2875 62.7C86.2875 61.38 86.5075 60.3067 86.9475 59.48C87.3875 58.6533 87.9808 58.0467 88.7275 57.66C89.4875 57.2733 90.3475 57.08 91.3075 57.08C91.8542 57.08 92.3808 57.14 92.8875 57.26C93.3942 57.3667 93.8075 57.5 94.1275 57.66L93.5875 59.12C93.2675 59 92.8942 58.8867 92.4675 58.78C92.0408 58.6733 91.6408 58.62 91.2675 58.62C89.1608 58.62 88.1075 59.9733 88.1075 62.68C88.1075 63.9733 88.3608 64.9667 88.8675 65.66C89.3875 66.34 90.1542 66.68 91.1675 66.68C91.7542 66.68 92.2675 66.62 92.7075 66.5C93.1608 66.38 93.5742 66.2333 93.9475 66.06V67.62C93.5875 67.8067 93.1875 67.9467 92.7475 68.04C92.3208 68.1467 91.8008 68.2 91.1875 68.2ZM102.837 57.28H104.757L100.177 62.44L105.137 68H103.097L98.2569 62.56V68H96.4969V57.28H98.2569V62.48L102.837 57.28ZM112.183 57.08C113.503 57.08 114.563 57.54 115.363 58.46C116.176 59.38 116.583 60.7667 116.583 62.62C116.583 64.4467 116.176 65.8333 115.363 66.78C114.563 67.7267 113.496 68.2 112.163 68.2C111.336 68.2 110.649 68.0467 110.103 67.74C109.569 67.42 109.149 67.0533 108.843 66.64H108.723C108.749 66.8667 108.776 67.1533 108.803 67.5C108.829 67.8467 108.843 68.1467 108.843 68.4V72.8H107.083V57.28H108.523L108.763 58.74H108.843C109.163 58.2733 109.583 57.88 110.103 57.56C110.623 57.24 111.316 57.08 112.183 57.08ZM111.863 58.56C110.769 58.56 109.996 58.8667 109.543 59.48C109.103 60.0933 108.869 61.0267 108.843 62.28V62.62C108.843 63.94 109.056 64.96 109.483 65.68C109.923 66.3867 110.729 66.74 111.903 66.74C112.556 66.74 113.089 66.56 113.503 66.2C113.929 65.84 114.243 65.3533 114.443 64.74C114.656 64.1133 114.763 63.4 114.763 62.6C114.763 61.3733 114.523 60.3933 114.043 59.66C113.576 58.9267 112.849 58.56 111.863 58.56ZM123.528 57.08C124.448 57.08 125.234 57.28 125.888 57.68C126.554 58.08 127.061 58.6467 127.408 59.38C127.768 60.1 127.948 60.9467 127.948 61.92V62.98H120.608C120.634 64.1933 120.941 65.12 121.528 65.76C122.128 66.3867 122.961 66.7 124.028 66.7C124.708 66.7 125.308 66.64 125.828 66.52C126.361 66.3867 126.908 66.2 127.468 65.96V67.5C126.921 67.74 126.381 67.9133 125.848 68.02C125.314 68.14 124.681 68.2 123.948 68.2C122.934 68.2 122.034 67.9933 121.248 67.58C120.474 67.1667 119.868 66.5533 119.428 65.74C119.001 64.9133 118.788 63.9067 118.788 62.72C118.788 61.5467 118.981 60.54 119.368 59.7C119.768 58.86 120.321 58.2133 121.028 57.76C121.748 57.3067 122.581 57.08 123.528 57.08ZM123.508 58.52C122.668 58.52 122.001 58.7933 121.508 59.34C121.028 59.8733 120.741 60.62 120.648 61.58H126.108C126.094 60.6733 125.881 59.94 125.468 59.38C125.054 58.8067 124.401 58.52 123.508 58.52ZM134.977 68.2C134.03 68.2 133.183 68.0067 132.437 67.62C131.703 67.2333 131.123 66.6333 130.697 65.82C130.283 65.0067 130.077 63.9667 130.077 62.7C130.077 61.38 130.297 60.3067 130.737 59.48C131.177 58.6533 131.77 58.0467 132.517 57.66C133.277 57.2733 134.137 57.08 135.097 57.08C135.643 57.08 136.17 57.14 136.677 57.26C137.183 57.3667 137.597 57.5 137.917 57.66L137.377 59.12C137.057 59 136.683 58.8867 136.257 58.78C135.83 58.6733 135.43 58.62 135.057 58.62C132.95 58.62 131.897 59.9733 131.897 62.68C131.897 63.9733 132.15 64.9667 132.657 65.66C133.177 66.34 133.943 66.68 134.957 66.68C135.543 66.68 136.057 66.62 136.497 66.5C136.95 66.38 137.363 66.2333 137.737 66.06V67.62C137.377 67.8067 136.977 67.9467 136.537 68.04C136.11 68.1467 135.59 68.2 134.977 68.2ZM147.686 58.76H144.186V68H142.446V58.76H138.986V57.28H147.686V58.76ZM151.558 57.28V61.74H157.378V57.28H159.138V68H157.378V63.22H151.558V68H149.798V57.28H151.558ZM171.852 62.62C171.852 64.3933 171.399 65.7667 170.492 66.74C169.599 67.7133 168.385 68.2 166.852 68.2C165.905 68.2 165.059 67.9867 164.312 67.56C163.579 67.12 162.999 66.4867 162.572 65.66C162.145 64.82 161.932 63.8067 161.932 62.62C161.932 60.8467 162.379 59.48 163.272 58.52C164.165 57.56 165.379 57.08 166.912 57.08C167.885 57.08 168.739 57.3 169.472 57.74C170.219 58.1667 170.799 58.7933 171.212 59.62C171.639 60.4333 171.852 61.4333 171.852 62.62ZM163.752 62.62C163.752 63.8867 163.999 64.8933 164.492 65.64C164.999 66.3733 165.799 66.74 166.892 66.74C167.972 66.74 168.765 66.3733 169.272 65.64C169.779 64.8933 170.032 63.8867 170.032 62.62C170.032 61.3533 169.779 60.36 169.272 59.64C168.765 58.92 167.965 58.56 166.872 58.56C165.779 58.56 164.985 58.92 164.492 59.64C163.999 60.36 163.752 61.3533 163.752 62.62ZM186.141 57.28V68H184.561V61.16C184.561 60.88 184.568 60.5867 184.581 60.28C184.608 59.9733 184.635 59.6733 184.661 59.38H184.601L181.101 68H179.621L176.221 59.38H176.161C176.201 59.98 176.221 60.5933 176.221 61.22V68H174.641V57.28H176.981L180.361 65.9L183.801 57.28H186.141ZM187.883 57.28H189.763L192.083 63.38C192.283 63.9133 192.463 64.4267 192.623 64.92C192.783 65.4 192.903 65.86 192.983 66.3H193.063C193.143 65.9667 193.27 65.5333 193.443 65C193.617 64.4533 193.797 63.9067 193.983 63.36L196.163 57.28H198.063L193.443 69.48C193.07 70.4933 192.583 71.3 191.983 71.9C191.397 72.5 190.583 72.8 189.543 72.8C189.223 72.8 188.943 72.78 188.703 72.74C188.463 72.7133 188.257 72.68 188.083 72.64V71.24C188.23 71.2667 188.403 71.2933 188.603 71.32C188.817 71.3467 189.037 71.36 189.263 71.36C189.877 71.36 190.37 71.1867 190.743 70.84C191.13 70.4933 191.43 70.0333 191.643 69.46L192.203 68.04L187.883 57.28ZM213.278 62.62C213.278 64.3933 212.824 65.7667 211.918 66.74C211.024 67.7133 209.811 68.2 208.278 68.2C207.331 68.2 206.484 67.9867 205.738 67.56C205.004 67.12 204.424 66.4867 203.998 65.66C203.571 64.82 203.358 63.8067 203.358 62.62C203.358 60.8467 203.804 59.48 204.698 58.52C205.591 57.56 206.804 57.08 208.338 57.08C209.311 57.08 210.164 57.3 210.898 57.74C211.644 58.1667 212.224 58.7933 212.638 59.62C213.064 60.4333 213.278 61.4333 213.278 62.62ZM205.178 62.62C205.178 63.8867 205.424 64.8933 205.918 65.64C206.424 66.3733 207.224 66.74 208.318 66.74C209.398 66.74 210.191 66.3733 210.698 65.64C211.204 64.8933 211.458 63.8867 211.458 62.62C211.458 61.3533 211.204 60.36 210.698 59.64C210.191 58.92 209.391 58.56 208.298 58.56C207.204 58.56 206.411 58.92 205.918 59.64C205.424 60.36 205.178 61.3533 205.178 62.62ZM215.507 61.56C215.507 59.2133 215.861 57.3867 216.567 56.08C217.274 54.76 218.414 53.9333 219.987 53.6C220.854 53.4133 221.701 53.2467 222.527 53.1C223.354 52.9533 224.127 52.82 224.847 52.7L225.147 54.24C224.681 54.3067 224.154 54.3933 223.567 54.5C222.981 54.5933 222.401 54.6933 221.827 54.8C221.254 54.8933 220.761 54.9867 220.347 55.08C219.481 55.2667 218.794 55.72 218.287 56.44C217.781 57.1467 217.494 58.2533 217.427 59.76H217.547C217.734 59.5067 217.987 59.2467 218.307 58.98C218.641 58.7133 219.034 58.4867 219.487 58.3C219.954 58.1133 220.481 58.02 221.067 58.02C222.454 58.02 223.501 58.4667 224.207 59.36C224.914 60.2533 225.267 61.4133 225.267 62.84C225.267 64.0267 225.061 65.02 224.647 65.82C224.234 66.62 223.661 67.22 222.927 67.62C222.194 68.0067 221.341 68.2 220.367 68.2C218.887 68.2 217.707 67.6333 216.827 66.5C215.947 65.3667 215.507 63.72 215.507 61.56ZM220.507 66.74C221.374 66.74 222.074 66.46 222.607 65.9C223.141 65.34 223.407 64.38 223.407 63.02C223.407 61.9267 223.201 61.0667 222.787 60.44C222.387 59.8 221.721 59.48 220.787 59.48C220.201 59.48 219.667 59.6133 219.187 59.88C218.707 60.1333 218.307 60.4267 217.987 60.76C217.667 61.0933 217.441 61.3733 217.307 61.6C217.307 62.2533 217.354 62.8867 217.447 63.5C217.541 64.1133 217.701 64.6667 217.927 65.16C218.167 65.64 218.494 66.0267 218.907 66.32C219.334 66.6 219.867 66.74 220.507 66.74ZM232.18 57.08C233.1 57.08 233.887 57.28 234.54 57.68C235.207 58.08 235.713 58.6467 236.06 59.38C236.42 60.1 236.6 60.9467 236.6 61.92V62.98H229.26C229.287 64.1933 229.593 65.12 230.18 65.76C230.78 66.3867 231.613 66.7 232.68 66.7C233.36 66.7 233.96 66.64 234.48 66.52C235.013 66.3867 235.56 66.2 236.12 65.96V67.5C235.573 67.74 235.033 67.9133 234.5 68.02C233.967 68.14 233.333 68.2 232.6 68.2C231.587 68.2 230.687 67.9933 229.9 67.58C229.127 67.1667 228.52 66.5533 228.08 65.74C227.653 64.9133 227.44 63.9067 227.44 62.72C227.44 61.5467 227.633 60.54 228.02 59.7C228.42 58.86 228.973 58.2133 229.68 57.76C230.4 57.3067 231.233 57.08 232.18 57.08ZM232.16 58.52C231.32 58.52 230.653 58.7933 230.16 59.34C229.68 59.8733 229.393 60.62 229.3 61.58H234.76C234.747 60.6733 234.533 59.94 234.12 59.38C233.707 58.8067 233.053 58.52 232.16 58.52ZM247.289 57.28V66.52H248.849V71.72H247.149V68H239.689V71.72H238.009V66.52H238.869C239.789 65.2533 240.476 63.8133 240.929 62.2C241.396 60.5733 241.636 58.9333 241.649 57.28H247.289ZM243.209 58.66C243.156 59.5667 243.016 60.5067 242.789 61.48C242.562 62.44 242.269 63.36 241.909 64.24C241.562 65.12 241.156 65.88 240.689 66.52H245.589V58.66H243.209ZM249.27 57.28H251.15L253.47 63.38C253.67 63.9133 253.85 64.4267 254.01 64.92C254.17 65.4 254.29 65.86 254.37 66.3H254.45C254.53 65.9667 254.657 65.5333 254.83 65C255.003 64.4533 255.183 63.9067 255.37 63.36L257.55 57.28H259.45L254.83 69.48C254.457 70.4933 253.97 71.3 253.37 71.9C252.783 72.5 251.97 72.8 250.93 72.8C250.61 72.8 250.33 72.78 250.09 72.74C249.85 72.7133 249.643 72.68 249.47 72.64V71.24C249.617 71.2667 249.79 71.2933 249.99 71.32C250.203 71.3467 250.423 71.36 250.65 71.36C251.263 71.36 251.757 71.1867 252.13 70.84C252.517 70.4933 252.817 70.0333 253.03 69.46L253.59 68.04L249.27 57.28Z" fill="black"/>
</svg>
