<svg width="520" height="100" viewBox="0 0 520 100" fill="none" xmlns="http://www.w3.org/2000/svg">
<path d="M0.72584 33V0.869998H24.8458V33H20.8408V4.425H4.77584V33H0.72584ZM54.0709 20.895C54.0709 24.885 53.0509 27.975 51.0109 30.165C49.0009 32.355 46.2709 33.45 42.8209 33.45C40.6909 33.45 38.7859 32.97 37.1059 32.01C35.4559 31.02 34.1509 29.595 33.1909 27.735C32.2309 25.845 31.7509 23.565 31.7509 20.895C31.7509 16.905 32.7559 13.83 34.7659 11.67C36.7759 9.51 39.5059 8.43 42.9559 8.43C45.1459 8.43 47.0659 8.925 48.7159 9.915C50.3959 10.875 51.7009 12.285 52.6309 14.145C53.5909 15.975 54.0709 18.225 54.0709 20.895ZM35.8459 20.895C35.8459 23.745 36.4009 26.01 37.5109 27.69C38.6509 29.34 40.4509 30.165 42.9109 30.165C45.3409 30.165 47.1259 29.34 48.2659 27.69C49.4059 26.01 49.9759 23.745 49.9759 20.895C49.9759 18.045 49.4059 15.81 48.2659 14.19C47.1259 12.57 45.3259 11.76 42.8659 11.76C40.4059 11.76 38.6209 12.57 37.5109 14.19C36.4009 15.81 35.8459 18.045 35.8459 20.895ZM86.222 8.88V33H82.667V17.61C82.667 16.98 82.682 16.32 82.712 15.63C82.772 14.94 82.832 14.265 82.892 13.605H82.757L74.882 33H71.552L63.902 13.605H63.767C63.857 14.955 63.902 16.335 63.902 17.745V33H60.347V8.88H65.612L73.217 28.275L80.957 8.88H86.222ZM114.891 20.895C114.891 24.885 113.871 27.975 111.831 30.165C109.821 32.355 107.091 33.45 103.641 33.45C101.511 33.45 99.6062 32.97 97.9262 32.01C96.2762 31.02 94.9712 29.595 94.0112 27.735C93.0512 25.845 92.5712 23.565 92.5712 20.895C92.5712 16.905 93.5762 13.83 95.5862 11.67C97.5962 9.51 100.326 8.43 103.776 8.43C105.966 8.43 107.886 8.925 109.536 9.915C111.216 10.875 112.521 12.285 113.451 14.145C114.411 15.975 114.891 18.225 114.891 20.895ZM96.6662 20.895C96.6662 23.745 97.2212 26.01 98.3312 27.69C99.4712 29.34 101.271 30.165 103.731 30.165C106.161 30.165 107.946 29.34 109.086 27.69C110.226 26.01 110.796 23.745 110.796 20.895C110.796 18.045 110.226 15.81 109.086 14.19C107.946 12.57 106.146 11.76 103.686 11.76C101.226 11.76 99.4412 12.57 98.3312 14.19C97.2212 15.81 96.6662 18.045 96.6662 20.895ZM135.882 8.88V12.21H125.127V33H121.167V8.88H135.882ZM149.77 8.475C152.71 8.475 154.885 9.12 156.295 10.41C157.705 11.7 158.41 13.755 158.41 16.575V33H155.53L154.765 29.58H154.585C153.535 30.9 152.425 31.875 151.255 32.505C150.115 33.135 148.525 33.45 146.485 33.45C144.295 33.45 142.48 32.88 141.04 31.74C139.6 30.57 138.88 28.755 138.88 26.295C138.88 23.895 139.825 22.05 141.715 20.76C143.605 19.44 146.515 18.72 150.445 18.6L154.54 18.465V17.025C154.54 15.015 154.105 13.62 153.235 12.84C152.365 12.06 151.135 11.67 149.545 11.67C148.285 11.67 147.085 11.865 145.945 12.255C144.805 12.615 143.74 13.035 142.75 13.515L141.535 10.545C142.585 9.975 143.83 9.495 145.27 9.105C146.71 8.685 148.21 8.475 149.77 8.475ZM154.495 21.21L150.94 21.345C147.94 21.465 145.855 21.945 144.685 22.785C143.545 23.625 142.975 24.81 142.975 26.34C142.975 27.69 143.38 28.68 144.19 29.31C145.03 29.94 146.095 30.255 147.385 30.255C149.425 30.255 151.12 29.7 152.47 28.59C153.82 27.45 154.495 25.71 154.495 23.37V21.21ZM175.175 8.43C177.245 8.43 179.015 8.88 180.485 9.78C181.985 10.68 183.125 11.955 183.905 13.605C184.715 15.225 185.12 17.13 185.12 19.32V21.705H168.605C168.665 24.435 169.355 26.52 170.675 27.96C172.025 29.37 173.9 30.075 176.3 30.075C177.83 30.075 179.18 29.94 180.35 29.67C181.55 29.37 182.78 28.95 184.04 28.41V31.875C182.81 32.415 181.595 32.805 180.395 33.045C179.195 33.315 177.77 33.45 176.12 33.45C173.84 33.45 171.815 32.985 170.045 32.055C168.305 31.125 166.94 29.745 165.95 27.915C164.99 26.055 164.51 23.79 164.51 21.12C164.51 18.48 164.945 16.215 165.815 14.325C166.715 12.435 167.96 10.98 169.55 9.96C171.17 8.94 173.045 8.43 175.175 8.43ZM175.13 11.67C173.24 11.67 171.74 12.285 170.63 13.515C169.55 14.715 168.905 16.395 168.695 18.555H180.98C180.95 16.515 180.47 14.865 179.54 13.605C178.61 12.315 177.14 11.67 175.13 11.67ZM217.135 8.88V33H213.58V17.61C213.58 16.98 213.595 16.32 213.625 15.63C213.685 14.94 213.745 14.265 213.805 13.605H213.67L205.795 33H202.465L194.815 13.605H194.68C194.77 14.955 194.815 16.335 194.815 17.745V33H191.26V8.88H196.525L204.13 28.275L211.87 8.88H217.135ZM253.678 14.955C253.678 16.455 253.228 17.625 252.328 18.465C251.428 19.305 250.273 19.875 248.863 20.175V20.355C250.363 20.565 251.668 21.105 252.778 21.975C253.888 22.815 254.443 24.135 254.443 25.935C254.443 27.975 253.678 29.67 252.148 31.02C250.648 32.34 248.158 33 244.678 33H234.283V8.88H244.633C246.343 8.88 247.873 9.075 249.223 9.465C250.603 9.825 251.683 10.455 252.463 11.355C253.273 12.225 253.678 13.425 253.678 14.955ZM249.673 15.45C249.673 14.31 249.253 13.485 248.413 12.975C247.603 12.435 246.268 12.165 244.408 12.165H238.243V18.78H243.688C247.678 18.78 249.673 17.67 249.673 15.45ZM250.348 25.935C250.348 24.555 249.823 23.565 248.773 22.965C247.723 22.365 246.178 22.065 244.138 22.065H238.243V29.805H244.228C246.208 29.805 247.723 29.52 248.773 28.95C249.823 28.35 250.348 27.345 250.348 25.935ZM269.345 8.475C272.285 8.475 274.46 9.12 275.87 10.41C277.28 11.7 277.985 13.755 277.985 16.575V33H275.105L274.34 29.58H274.16C273.11 30.9 272 31.875 270.83 32.505C269.69 33.135 268.1 33.45 266.06 33.45C263.87 33.45 262.055 32.88 260.615 31.74C259.175 30.57 258.455 28.755 258.455 26.295C258.455 23.895 259.4 22.05 261.29 20.76C263.18 19.44 266.09 18.72 270.02 18.6L274.115 18.465V17.025C274.115 15.015 273.68 13.62 272.81 12.84C271.94 12.06 270.71 11.67 269.12 11.67C267.86 11.67 266.66 11.865 265.52 12.255C264.38 12.615 263.315 13.035 262.325 13.515L261.11 10.545C262.16 9.975 263.405 9.495 264.845 9.105C266.285 8.685 267.785 8.475 269.345 8.475ZM274.07 21.21L270.515 21.345C267.515 21.465 265.43 21.945 264.26 22.785C263.12 23.625 262.55 24.81 262.55 26.34C262.55 27.69 262.955 28.68 263.765 29.31C264.605 29.94 265.67 30.255 266.96 30.255C269 30.255 270.695 29.7 272.045 28.59C273.395 27.45 274.07 25.71 274.07 23.37V21.21ZM311.31 8.88V33H307.755V17.61C307.755 16.98 307.77 16.32 307.8 15.63C307.86 14.94 307.92 14.265 307.98 13.605H307.845L299.97 33H296.64L288.99 13.605H288.855C288.945 14.955 288.99 16.335 288.99 17.745V33H285.435V8.88H290.7L298.305 28.275L306.045 8.88H311.31ZM343.172 8.88V12.21H332.417V33H328.457V8.88H343.172ZM368.456 20.895C368.456 24.885 367.436 27.975 365.396 30.165C363.386 32.355 360.656 33.45 357.206 33.45C355.076 33.45 353.171 32.97 351.491 32.01C349.841 31.02 348.536 29.595 347.576 27.735C346.616 25.845 346.136 23.565 346.136 20.895C346.136 16.905 347.141 13.83 349.151 11.67C351.161 9.51 353.891 8.43 357.341 8.43C359.531 8.43 361.451 8.925 363.101 9.915C364.781 10.875 366.086 12.285 367.016 14.145C367.976 15.975 368.456 18.225 368.456 20.895ZM350.231 20.895C350.231 23.745 350.786 26.01 351.896 27.69C353.036 29.34 354.836 30.165 357.296 30.165C359.726 30.165 361.511 29.34 362.651 27.69C363.791 26.01 364.361 23.745 364.361 20.895C364.361 18.045 363.791 15.81 362.651 14.19C361.511 12.57 359.711 11.76 357.251 11.76C354.791 11.76 353.006 12.57 351.896 14.19C350.786 15.81 350.231 18.045 350.231 20.895ZM390.942 12.21H383.067V33H379.152V12.21H371.367V8.88H390.942V12.21ZM416.224 20.895C416.224 24.885 415.204 27.975 413.164 30.165C411.154 32.355 408.424 33.45 404.974 33.45C402.844 33.45 400.939 32.97 399.259 32.01C397.609 31.02 396.304 29.595 395.344 27.735C394.384 25.845 393.904 23.565 393.904 20.895C393.904 16.905 394.909 13.83 396.919 11.67C398.929 9.51 401.659 8.43 405.109 8.43C407.299 8.43 409.219 8.925 410.869 9.915C412.549 10.875 413.854 12.285 414.784 14.145C415.744 15.975 416.224 18.225 416.224 20.895ZM397.999 20.895C397.999 23.745 398.554 26.01 399.664 27.69C400.804 29.34 402.604 30.165 405.064 30.165C407.494 30.165 409.279 29.34 410.419 27.69C411.559 26.01 412.129 23.745 412.129 20.895C412.129 18.045 411.559 15.81 410.419 14.19C409.279 12.57 407.479 11.76 405.019 11.76C402.559 11.76 400.774 12.57 399.664 14.19C398.554 15.81 397.999 18.045 397.999 20.895ZM441.895 14.955C441.895 16.455 441.445 17.625 440.545 18.465C439.645 19.305 438.49 19.875 437.08 20.175V20.355C438.58 20.565 439.885 21.105 440.995 21.975C442.105 22.815 442.66 24.135 442.66 25.935C442.66 27.975 441.895 29.67 440.365 31.02C438.865 32.34 436.375 33 432.895 33H422.5V8.88H432.85C434.56 8.88 436.09 9.075 437.44 9.465C438.82 9.825 439.9 10.455 440.68 11.355C441.49 12.225 441.895 13.425 441.895 14.955ZM437.89 15.45C437.89 14.31 437.47 13.485 436.63 12.975C435.82 12.435 434.485 12.165 432.625 12.165H426.46V18.78H431.905C435.895 18.78 437.89 17.67 437.89 15.45ZM438.565 25.935C438.565 24.555 438.04 23.565 436.99 22.965C435.94 22.365 434.395 22.065 432.355 22.065H426.46V29.805H432.445C434.425 29.805 435.94 29.52 436.99 28.95C438.04 28.35 438.565 27.345 438.565 25.935ZM452.163 8.88V23.595C452.163 23.955 452.148 24.495 452.118 25.215C452.088 25.935 452.043 26.655 451.983 27.375C451.953 28.095 451.923 28.665 451.893 29.085L464.808 8.88H469.668V33H465.978V18.78C465.978 18.3 465.978 17.67 465.978 16.89C466.008 16.11 466.038 15.345 466.068 14.595C466.098 13.815 466.128 13.23 466.158 12.84L453.333 33H448.428V8.88H452.163ZM493.994 12.21H486.119V33H482.204V12.21H474.419V8.88H493.994V12.21ZM502.705 18.78H509.86C516.13 18.78 519.265 21.06 519.265 25.62C519.265 27.87 518.5 29.67 516.97 31.02C515.44 32.34 513.01 33 509.68 33H498.745V8.88H502.705V18.78ZM515.305 25.845C515.305 24.375 514.78 23.385 513.73 22.875C512.71 22.335 511.27 22.065 509.41 22.065H502.705V29.805H509.5C511.18 29.805 512.56 29.505 513.64 28.905C514.75 28.305 515.305 27.285 515.305 25.845ZM127.61 66.88H131.93L121.625 78.49L132.785 91H128.195L117.305 78.76V91H113.345V66.88H117.305V78.58L127.61 66.88ZM146.298 66.475C149.238 66.475 151.413 67.12 152.823 68.41C154.233 69.7 154.938 71.755 154.938 74.575V91H152.058L151.293 87.58H151.113C150.063 88.9 148.953 89.875 147.783 90.505C146.643 91.135 145.053 91.45 143.013 91.45C140.823 91.45 139.008 90.88 137.568 89.74C136.128 88.57 135.408 86.755 135.408 84.295C135.408 81.895 136.353 80.05 138.243 78.76C140.133 77.44 143.043 76.72 146.973 76.6L151.068 76.465V75.025C151.068 73.015 150.633 71.62 149.763 70.84C148.893 70.06 147.663 69.67 146.073 69.67C144.813 69.67 143.613 69.865 142.473 70.255C141.333 70.615 140.268 71.035 139.278 71.515L138.063 68.545C139.113 67.975 140.358 67.495 141.798 67.105C143.238 66.685 144.738 66.475 146.298 66.475ZM151.023 79.21L147.468 79.345C144.468 79.465 142.383 79.945 141.213 80.785C140.073 81.625 139.503 82.81 139.503 84.34C139.503 85.69 139.908 86.68 140.718 87.31C141.558 87.94 142.623 88.255 143.913 88.255C145.953 88.255 147.648 87.7 148.998 86.59C150.348 85.45 151.023 83.71 151.023 81.37V79.21ZM191.323 66.88L181.378 78.58L192.178 91H187.678L177.238 78.76V91H173.548V78.76L163.108 91H158.608L169.408 78.58L159.463 66.88H163.783L173.548 78.58V66.88H177.238V78.58L187.048 66.88H191.323ZM214.048 66.88V87.67H217.558V99.37H213.733V91H196.948V99.37H193.168V87.67H195.103C197.173 84.82 198.718 81.58 199.738 77.95C200.788 74.29 201.328 70.6 201.358 66.88H214.048ZM210.223 69.985H204.868C204.748 72.025 204.433 74.14 203.923 76.33C203.413 78.49 202.753 80.56 201.943 82.54C201.163 84.52 200.248 86.23 199.198 87.67H210.223V69.985ZM222.285 91V66.88H226.245V76.78H232.5C235.62 76.78 237.93 77.35 239.43 78.49C240.93 79.63 241.68 81.34 241.68 83.62C241.68 85.87 240.945 87.67 239.475 89.02C238.005 90.34 235.62 91 232.32 91H222.285ZM245.685 91V66.88H249.645V91H245.685ZM226.245 87.805H231.96C233.67 87.805 235.065 87.52 236.145 86.95C237.225 86.35 237.765 85.315 237.765 83.845C237.765 82.375 237.27 81.385 236.28 80.875C235.29 80.335 233.865 80.065 232.005 80.065H226.245V87.805ZM261.045 66.88V81.595C261.045 81.955 261.03 82.495 261 83.215C260.97 83.935 260.925 84.655 260.865 85.375C260.835 86.095 260.805 86.665 260.775 87.085L273.69 66.88H278.55V91H274.86V76.78C274.86 76.3 274.86 75.67 274.86 74.89C274.89 74.11 274.92 73.345 274.95 72.595C274.98 71.815 275.01 71.23 275.04 70.84L262.215 91H257.31V66.88H261.045ZM276.84 56.89C276.63 59.14 275.865 60.85 274.545 62.02C273.255 63.16 271.185 63.73 268.335 63.73C265.395 63.73 263.31 63.16 262.08 62.02C260.88 60.88 260.205 59.17 260.055 56.89H263.745C263.895 58.51 264.315 59.605 265.005 60.175C265.725 60.715 266.865 60.985 268.425 60.985C269.805 60.985 270.885 60.7 271.665 60.13C272.475 59.53 272.955 58.45 273.105 56.89H276.84ZM313.584 66.88V87.67H317.094V99.37H313.269V91H296.484V99.37H292.704V87.67H294.639C296.709 84.82 298.254 81.58 299.274 77.95C300.324 74.29 300.864 70.6 300.894 66.88H313.584ZM309.759 69.985H304.404C304.284 72.025 303.969 74.14 303.459 76.33C302.949 78.49 302.289 80.56 301.479 82.54C300.699 84.52 299.784 86.23 298.734 87.67H309.759V69.985ZM331.137 66.43C333.207 66.43 334.977 66.88 336.447 67.78C337.947 68.68 339.087 69.955 339.867 71.605C340.677 73.225 341.082 75.13 341.082 77.32V79.705H324.567C324.627 82.435 325.317 84.52 326.637 85.96C327.987 87.37 329.862 88.075 332.262 88.075C333.792 88.075 335.142 87.94 336.312 87.67C337.512 87.37 338.742 86.95 340.002 86.41V89.875C338.772 90.415 337.557 90.805 336.357 91.045C335.157 91.315 333.732 91.45 332.082 91.45C329.802 91.45 327.777 90.985 326.007 90.055C324.267 89.125 322.902 87.745 321.912 85.915C320.952 84.055 320.472 81.79 320.472 79.12C320.472 76.48 320.907 74.215 321.777 72.325C322.677 70.435 323.922 68.98 325.512 67.96C327.132 66.94 329.007 66.43 331.137 66.43ZM331.092 69.67C329.202 69.67 327.702 70.285 326.592 71.515C325.512 72.715 324.867 74.395 324.657 76.555H336.942C336.912 74.515 336.432 72.865 335.502 71.605C334.572 70.315 333.102 69.67 331.092 69.67ZM351.182 66.88V76.915H364.277V66.88H368.237V91H364.277V80.245H351.182V91H347.222V66.88H351.182ZM379.834 76.78H386.989C393.259 76.78 396.394 79.06 396.394 83.62C396.394 85.87 395.629 87.67 394.099 89.02C392.569 90.34 390.139 91 386.809 91H375.874V66.88H379.834V76.78ZM392.434 83.845C392.434 82.375 391.909 81.385 390.859 80.875C389.839 80.335 388.399 80.065 386.539 80.065H379.834V87.805H386.629C388.309 87.805 389.689 87.505 390.769 86.905C391.879 86.305 392.434 85.285 392.434 83.845ZM407.096 59.3594C406.642 63.5928 406.239 67.7236 405.887 71.752C405.55 75.7803 405.294 79.7939 405.118 83.793H401.69C401.646 79.75 401.507 75.6631 401.273 71.5322C401.039 67.4014 400.687 63.3438 400.218 59.3594H407.096ZM406.371 88.9346C406.371 89.3301 406.29 89.7036 406.129 90.0552C405.982 90.3921 405.777 90.6924 405.514 90.9561C405.265 91.2197 404.964 91.4248 404.613 91.5713C404.261 91.7324 403.888 91.813 403.492 91.813C403.082 91.813 402.701 91.7324 402.35 91.5713C401.998 91.4248 401.69 91.2197 401.427 90.9561C401.163 90.6924 400.951 90.3921 400.79 90.0552C400.643 89.7036 400.57 89.3301 400.57 88.9346C400.57 88.5244 400.643 88.1436 400.79 87.792C400.951 87.4404 401.163 87.1328 401.427 86.8691C401.69 86.6055 401.998 86.4004 402.35 86.2539C402.701 86.0928 403.082 86.0122 403.492 86.0122C403.888 86.0122 404.261 86.0928 404.613 86.2539C404.964 86.4004 405.265 86.6055 405.514 86.8691C405.777 87.1328 405.982 87.4404 406.129 87.792C406.29 88.1436 406.371 88.5244 406.371 88.9346Z" fill="black" fill-opacity="0.76"/>
</svg>
