<svg width="310" height="33" viewBox="0 0 310 33" fill="none" xmlns="http://www.w3.org/2000/svg">
<path d="M0.8375 -1.90735e-06H17.6375C20.4375 -1.90735e-06 22.4642 0.639999 23.7175 1.92C24.9975 3.17333 25.6375 5.2 25.6375 8V12C25.6375 14.8 24.9975 16.84 23.7175 18.12C22.4642 19.3733 20.4375 20 17.6375 20H8.0375V28H0.8375V-1.90735e-06ZM18.4375 8C18.4375 6.4 17.6375 5.6 16.0375 5.6H8.0375V14.4H16.0375C17.6375 14.4 18.4375 13.6 18.4375 12V8ZM37.0359 11.4C35.9693 11.4 35.4359 11.9333 35.4359 13V15.2H42.2359V13C42.2359 11.9333 41.7026 11.4 40.6359 11.4H37.0359ZM48.4359 27.6C43.2893 28.1333 38.6226 28.4 34.4359 28.4C32.6226 28.4 31.1693 27.8533 30.0759 26.76C28.9826 25.6667 28.4359 24.2133 28.4359 22.4V12.8C28.4359 10.8 28.9959 9.24 30.1159 8.12C31.2626 6.97333 32.8359 6.4 34.8359 6.4H42.8359C44.8359 6.4 46.3959 6.97333 47.5159 8.12C48.6626 9.24 49.2359 10.8 49.2359 12.8V20.2H35.4359V21.8C35.4359 22.2 35.5693 22.5333 35.8359 22.8C36.1026 23.0667 36.4359 23.2 36.8359 23.2C39.4759 23.2 43.3426 23 48.4359 22.6V27.6ZM70.0203 28H52.8203V6.8H59.8203V22.6H67.0203V6.8H74.0203V22.6H77.0203V32.8H70.4203L70.0203 28ZM88.0125 11.4C86.9458 11.4 86.4125 11.9333 86.4125 13V15.2H93.2125V13C93.2125 11.9333 92.6792 11.4 91.6125 11.4H88.0125ZM99.4125 27.6C94.2658 28.1333 89.5992 28.4 85.4125 28.4C83.5992 28.4 82.1458 27.8533 81.0525 26.76C79.9592 25.6667 79.4125 24.2133 79.4125 22.4V12.8C79.4125 10.8 79.9725 9.24 81.0925 8.12C82.2392 6.97333 83.8125 6.4 85.8125 6.4H93.8125C95.8125 6.4 97.3725 6.97333 98.4925 8.12C99.6392 9.24 100.213 10.8 100.213 12.8V20.2H86.4125V21.8C86.4125 22.2 86.5458 22.5333 86.8125 22.8C87.0792 23.0667 87.4125 23.2 87.8125 23.2C90.4525 23.2 94.3192 23 99.4125 22.6V27.6ZM124.997 6.8V28H117.997V12.2H110.797V28H103.797V6.8H124.997ZM140.992 12.2V28H133.992V12.2H127.392V6.8H147.592V12.2H140.992ZM176.2 14.6V6.8H183.2V28H176.2V20H169V28H162V6.8H169V14.6H176.2ZM195.395 11.4C194.329 11.4 193.795 11.9333 193.795 13V15.2H200.595V13C200.595 11.9333 200.062 11.4 198.995 11.4H195.395ZM206.795 27.6C201.649 28.1333 196.982 28.4 192.795 28.4C190.982 28.4 189.529 27.8533 188.435 26.76C187.342 25.6667 186.795 24.2133 186.795 22.4V12.8C186.795 10.8 187.355 9.24 188.475 8.12C189.622 6.97333 191.195 6.4 193.195 6.4H201.195C203.195 6.4 204.755 6.97333 205.875 8.12C207.022 9.24 207.595 10.8 207.595 12.8V20.2H193.795V21.8C193.795 22.2 193.929 22.5333 194.195 22.8C194.462 23.0667 194.795 23.2 195.195 23.2C197.835 23.2 201.702 23 206.795 22.6V27.6ZM220.58 18C220.446 19.8667 219.913 21.4 218.98 22.6H225.98V12.2H220.98L220.58 18ZM232.98 6.8V22.6H235.98V32.8H229.34L228.94 28H216.62L216.22 32.8H209.58V22.6H212.18C213.246 21.3467 213.846 19.9467 213.98 18.4L214.78 6.8H232.98ZM246.997 11.4C245.93 11.4 245.397 11.9333 245.397 13V15.2H252.197V13C252.197 11.9333 251.664 11.4 250.597 11.4H246.997ZM258.397 27.6C253.25 28.1333 248.584 28.4 244.397 28.4C242.584 28.4 241.13 27.8533 240.037 26.76C238.944 25.6667 238.397 24.2133 238.397 22.4V12.8C238.397 10.8 238.957 9.24 240.077 8.12C241.224 6.97333 242.797 6.4 244.797 6.4H252.797C254.797 6.4 256.357 6.97333 257.477 8.12C258.624 9.24 259.197 10.8 259.197 12.8V20.2H245.397V21.8C245.397 22.2 245.53 22.5333 245.797 22.8C246.064 23.0667 246.397 23.2 246.797 23.2C249.437 23.2 253.304 23 258.397 22.6V27.6ZM265.181 28.4C264.035 28.4 262.701 28.2667 261.181 28V22.8H262.781C263.795 22.8 264.328 22.2667 264.381 21.2L265.181 6.8H284.381V28H277.381V12.2H271.781L271.181 22.4C271.075 24.2133 270.475 25.6667 269.381 26.76C268.288 27.8533 266.888 28.4 265.181 28.4ZM302.167 6.8H309.567V28H302.567V16.4L295.767 28H288.367V6.8H295.367V18.4L302.167 6.8Z" fill="#534229"/>
</svg>
